<?xml version="1.0" encoding="UTF-8" standalone="no"?>
<!DOCTYPE svg PUBLIC "-//W3C//DTD SVG 1.1//EN" "http://www.w3.org/Graphics/SVG/1.1/DTD/svg11.dtd">
<svg xmlns="http://www.w3.org/2000/svg" xmlns:xlink="http://www.w3.org/1999/xlink" version="1.1" width="1151.0527pt" height="216.18889pt" viewBox="0 0 1151.0527 216.18889">
<g enable-background="new">
<rect width="100%" height="100%" fill="white"/>
<clipPath id="cp0">
<path transform="matrix(2.7777777,0,0,-2.7777777,-222.03055,2023.0667)" d="M 0 0 L 595.276 0 L 595.276 841.89 L 0 841.89 Z "/>
</clipPath>
<g clip-path="url(#cp0)">
<path transform="matrix(2.7777777,0,0,-2.7777777,29.938887,6.7916867)" stroke-width=".797" stroke-linecap="butt" stroke-miterlimit="10" stroke-linejoin="miter" fill="none" stroke="#000000" d="M 0 0 L 396.85 0 "/>
<symbol id="font_1_3">
<path d="M .45100004 0 L .45100004 .056 L .29700003 .056 L .29700003 .62100008 C .29700003 .656 .29000003 .656 .24800003 .656 C .18600002 .606 .10400001 .592 .023999997 .592 L 0 .592 L 0 .536 L .023999997 .536 C .064 .536 .125 .54300007 .16700003 .55700007 L .16700003 .056 L .009000003 .056 L .009000003 0 C .058000007 .004 .178 .004 .23200003 .004 L .34000004 .003 C .37000004 .003 .42200006 .002 .45100004 0 Z "/>
</symbol>
<use xlink:href="#font_1_3" transform="matrix(19.371666,0,0,-19.371666,5.5397837,38.61682)"/>
<symbol id="font_2_8">
<path d="M .68200007 .49100004 C .68200007 .601 .58300009 .68600007 .41700004 .68600007 L 0 .68600007 L 0 .63900008 L .107999999 .63900008 L .107999999 .047000003 L 0 .047000003 L 0 0 C .038000008 .003 .136 .003 .179 .003 C .222 .003 .32000003 .003 .358 0 L .358 .047000003 L .25 .047000003 L .25 .30200003 L .42700003 .30200003 C .56600007 .30200003 .68200007 .374 .68200007 .49100004 M .52900007 .49100004 C .52900007 .42000003 .52900007 .34300003 .37800003 .34300003 L .24400002 .34300003 L .24400002 .63900008 L .379 .63900008 C .52900007 .63900008 .52900007 .563 .52900007 .49100004 Z "/>
</symbol>
<symbol id="font_2_9">
<path d="M .40500004 .36800004 C .40500004 .42100004 .351 .45000003 .29900003 .45000003 C .229 .45000003 .18900001 .4 .16600001 .337 L .16600001 .45000003 L 0 .44200004 L 0 .395 C .062000008 .395 .069000009 .395 .069000009 .356 L .069000009 .047000003 L 0 .047000003 L 0 0 L .126 .003 C .164 .003 .22800002 .003 .26400004 0 L .26400004 .047000003 L .17700002 .047000003 L .17700002 .22200002 C .17700002 .29200004 .202 .41400004 .30200003 .41400004 C .30200003 .41400004 .28300003 .397 .28300003 .36800004 C .28300003 .32700003 .31500004 .307 .344 .307 C .37300004 .307 .40500004 .328 .40500004 .36800004 Z "/>
</symbol>
<symbol id="font_2_7">
<path d="M .51000007 .224 C .51000007 .35800005 .418 .45900003 .255 .45900003 C .091000009 .45900003 0 .35700003 0 .224 C 0 .1 .088 0 .255 0 C .423 0 .51000007 .101 .51000007 .224 M .38200004 .23500002 C .38200004 .148 .38200004 .040000004 .255 .040000004 C .128 .040000004 .128 .148 .128 .23500002 C .128 .28000004 .128 .33100004 .145 .36500005 C .164 .40200005 .206 .42300005 .255 .42300005 C .29700003 .42300005 .33900003 .40700004 .361 .37200005 C .38200004 .33800004 .38200004 .28300003 .38200004 .23500002 Z "/>
</symbol>
<symbol id="font_2_1">
<path d="M .44 .123 C .44 .13700001 .426 .13700001 .416 .13700001 C .398 .13700001 .397 .135 .39200003 .122 C .366 .059000005 .31800003 .040000004 .26700003 .040000004 C .128 .040000004 .128 .187 .128 .23300001 C .128 .28900004 .128 .41900004 .25700004 .41900004 C .292 .41900004 .30900003 .41600005 .32200004 .41300003 C .30400003 .39700005 .302 .37600003 .302 .36700005 C .302 .323 .337 .30400003 .36400003 .30400003 C .39500005 .30400003 .42700006 .32500003 .42700006 .36700005 C .42700006 .45300005 .311 .45900003 .25300003 .45900003 C .074 .45900003 0 .34400005 0 .22800002 C 0 .095 .094 0 .24800001 0 C .41000004 0 .44 .116000007 .44 .123 Z "/>
</symbol>
<symbol id="font_2_3">
<path d="M .462 .123 C .462 .141 .44300003 .141 .43800003 .141 C .421 .141 .41900004 .136 .41300003 .120000008 C .39200003 .072 .335 .040000004 .27 .040000004 C .12900001 .040000004 .128 .17300001 .128 .224 L .43 .224 C .45200003 .224 .462 .224 .462 .25100003 C .462 .28200004 .45600004 .35500003 .40600003 .40500004 C .36900003 .44100005 .316 .45900003 .24700001 .45900003 C .087 .45900003 0 .35600005 0 .231 C 0 .097 .099999997 0 .261 0 C .41900004 0 .462 .106 .462 .123 M .367 .25700004 L .128 .25700004 C .13 .29600004 .131 .33800004 .15200001 .37100003 C .178 .41100005 .218 .42300005 .24700001 .42300005 C .36400003 .42300005 .36600004 .29200004 .367 .25700004 Z "/>
</symbol>
<symbol id="font_2_2">
<path d="M .563 .006 L .563 .053000004 C .50100007 .053000004 .49400003 .053000004 .49400003 .092 L .49400003 .7 L .31700004 .69200006 L .31700004 .64500007 C .379 .64500007 .38600005 .64500007 .38600005 .606 L .38600005 .41100005 C .33600004 .45000006 .28400005 .45600004 .251 .45600004 C .105000007 .45600004 0 .36800004 0 .22700002 C 0 .095 .09200001 0 .24000003 0 C .301 0 .34900005 .024 .38 .049000004 L .38 0 L .563 .006 M .38 .109000008 C .36700005 .091 .32600004 .036000004 .25 .036000004 C .128 .036000004 .128 .157 .128 .22700002 C .128 .27500005 .128 .32900004 .154 .36800004 C .18300002 .41000004 .23 .42000006 .26100005 .42000006 C .31800003 .42000006 .35800005 .38800005 .38 .35900004 L .38 .109000008 Z "/>
</symbol>
<symbol id="font_2_b">
<path d="M .57 .006 L .57 .053000004 C .508 .053000004 .501 .053000004 .501 .092 L .501 .45600004 L .31800003 .44800005 L .31800003 .40100003 C .38 .40100003 .38700003 .40100003 .38700003 .36200003 L .38700003 .171 C .38700003 .089 .33600004 .036000004 .263 .036000004 C .186 .036000004 .18300002 .061000006 .18300002 .115 L .18300002 .45600004 L 0 .44800005 L 0 .40100003 C .062000008 .40100003 .069000009 .40100003 .069000009 .36200003 L .069000009 .12900001 C .069000009 .022 .15 0 .249 0 C .27500005 0 .347 0 .393 .078 L .393 0 L .57 .006 Z "/>
</symbol>
<use xlink:href="#font_2_8" transform="matrix(27.673888,0,0,-27.673888,31.01817,38.61682)"/>
<use xlink:href="#font_2_9" transform="matrix(27.673888,0,0,-27.673888,52.714487,38.61682)"/>
<use xlink:href="#font_2_7" transform="matrix(27.673888,0,0,-27.673888,65.69355,38.782865)"/>
<use xlink:href="#font_2_1" transform="matrix(27.673888,0,0,-27.673888,82.65765,38.782865)"/>
<use xlink:href="#font_2_3" transform="matrix(27.673888,0,0,-27.673888,96.63297,38.782865)"/>
<use xlink:href="#font_2_2" transform="matrix(27.673888,0,0,-27.673888,111.38315,38.782865)"/>
<use xlink:href="#font_2_b" transform="matrix(27.673888,0,0,-27.673888,129.26047,38.782865)"/>
<use xlink:href="#font_2_9" transform="matrix(27.673888,0,0,-27.673888,146.7227,38.61682)"/>
<use xlink:href="#font_2_3" transform="matrix(27.673888,0,0,-27.673888,159.70175,38.782865)"/>
<symbol id="font_3_6">
<path d="M .486 .492 C .486 .59900006 .38700003 .694 .24900003 .694 L 0 .694 L 0 0 L .089 0 L .089 .289 L .25600005 .289 C .38 .289 .486 .38000003 .486 .492 M .40500004 .492 C .40500004 .41300003 .342 .347 .22700002 .347 L .08600001 .347 L .08600001 .638 L .22700002 .638 C .337 .638 .40500004 .577 .40500004 .492 Z "/>
</symbol>
<symbol id="font_3_8">
<path d="M .24500002 .388 L .24500002 .455 C .156 .45400004 .10100001 .40500004 .07000001 .35900004 L .07000001 .45000003 L 0 .45000003 L 0 0 L .075 0 L .075 .21400002 C .075 .314 .14700002 .386 .24500002 .388 Z "/>
</symbol>
<symbol id="font_3_5">
<path d="M .439 .23100002 C .439 .365 .33900003 .47200004 .22 .47200004 C .097 .47200004 0 .36200003 0 .23100002 C 0 .09900001 .102 0 .21900001 0 C .33900003 0 .439 .101 .439 .23100002 M .36100004 .24100001 C .36100004 .123 .293 .064 .21900001 .064 C .15 .064 .078 .120000008 .078 .24100001 C .078 .36200003 .15400002 .411 .21900001 .411 C .289 .411 .36100004 .35900004 .36100004 .24100001 Z "/>
</symbol>
<symbol id="font_3_7">
<path d="M .398 .417 C .398 .53700008 .33500005 .64900007 .23900001 .64900007 C .179 .64900007 .12100001 .628 .075 .589 L .075 .638 L 0 .638 L 0 0 L .07800001 0 L .07800001 .24000001 C .10900001 .21100001 .15300001 .183 .21300002 .183 C .31 .183 .398 .28100003 .398 .417 M .32 .417 C .32 .314 .24900003 .244 .17400001 .244 C .135 .244 .10800001 .264 .088 .291 C .07800001 .306 .07800001 .30800004 .07800001 .326 L .07800001 .527 C .10200001 .56200006 .141 .58500006 .184 .58500006 C .26 .58500006 .32 .50900009 .32 .417 Z "/>
</symbol>
<symbol id="font_3_1">
<path d="M .35500003 .011000001 L .35500003 .3 C .35500003 .40200005 .28200004 .47200004 .19000001 .47200004 C .125 .47200004 .08 .45600004 .033000005 .42900003 L .039 .36300005 C .091000009 .40000005 .141 .41300003 .19000001 .41300003 C .237 .41300003 .27700005 .37300004 .27700005 .29900003 L .27700005 .256 C .127 .254 0 .21200001 0 .124000009 C 0 .081 .026999999 0 .11400001 0 C .128 0 .22200002 .0020000004 .28000004 .047000003 L .28000004 .011000001 L .35500003 .011000001 M .27700005 .143 C .27700005 .124000009 .27700005 .09900001 .24300002 .080000009 C .214 .062000004 .176 .061 .165 .061 C .117 .061 .072 .08400001 .072 .126 C .072 .19600001 .23400001 .20300001 .27700005 .20500002 L .27700005 .143 Z "/>
</symbol>
<symbol id="font_3_3">
<path d="M .45700003 .59800007 L .44600005 .661 C .37600003 .661 .31800003 .642 .28800003 .629 C .26700003 .646 .23300001 .661 .19300002 .661 C .10700001 .661 .034 .58900007 .034 .49800004 C .034 .46100004 .047000003 .425 .067 .39900003 C .038 .35800005 .038 .319 .038 .314 C .038 .28800003 .047000003 .259 .06400001 .23800002 C .012000002 .20700002 0 .16100002 0 .13500002 C 0 .060000004 .09900001 0 .22100002 0 C .344 0 .44300003 .059000017 .44300003 .136 C .44300003 .27500005 .27600003 .27500005 .23700002 .27500005 L .149 .27500005 C .136 .27500005 .091000009 .27500005 .091000009 .328 C .091000009 .33900003 .095 .35500003 .10200001 .36400003 C .12300001 .34900005 .15600002 .33500005 .19300002 .33500005 C .28300003 .33500005 .35300002 .40900005 .35300002 .49800004 C .35300002 .546 .33100004 .583 .32000003 .59800007 L .32400004 .59700009 C .34600003 .59700009 .374 .601 .39800004 .601 C .41600005 .601 .45700003 .59800007 .45700003 .59800007 M .28300003 .49800004 C .28300003 .42000003 .236 .39200003 .19300002 .39200003 C .15600002 .39200003 .104 .41500003 .104 .49800004 C .104 .58100005 .15600002 .60400006 .19300002 .60400006 C .236 .60400006 .28300003 .57600006 .28300003 .49800004 M .37300004 .134 C .37300004 .09000001 .30400003 .05700001 .222 .05700001 C .14100002 .05700001 .07000001 .08800001 .07000001 .13500002 C .07000001 .13800001 .07000001 .20300001 .14800002 .20300001 L .238 .20300001 C .26000003 .20300001 .37300004 .20300001 .37300004 .134 Z "/>
</symbol>
<symbol id="font_3_9">
<path d="M .31300003 .038000004 L .29700003 .097 C .27100004 .076000008 .23900002 .064 .20700002 .064 C .17000002 .064 .15600002 .094000007 .15600002 .14700002 L .15600002 .397 L .29700003 .397 L .29700003 .45500005 L .15600002 .45500005 L .15600002 .582 L .087000008 .582 L .087000008 .45500005 L 0 .45500005 L 0 .397 L .08400001 .397 L .08400001 .13000001 C .08400001 .07000001 .098000008 0 .167 0 C .23700002 0 .28800003 .025000003 .31300003 .038000004 Z "/>
</symbol>
<symbol id="font_3_2">
<path d="M .37900005 .23000002 C .37900005 .26400004 .37800003 .33900003 .33900003 .39900003 C .298 .46100004 .23700002 .47200004 .20100002 .47200004 C .09 .47200004 0 .36600004 0 .23700002 C 0 .105000007 .096000019 0 .21600002 0 C .279 0 .33600004 .024 .37500004 .052 L .36900003 .117000009 C .30600003 .065000008 .24000001 .061 .21700001 .061 C .13700001 .061 .073 .13200002 .07000001 .23000002 L .37900005 .23000002 M .32200004 .28500004 L .075 .28500004 C .091000009 .36100004 .14400001 .411 .20100002 .411 C .25300003 .411 .30900003 .37700004 .32200004 .28500004 Z "/>
</symbol>
<symbol id="font_3_b">
<path d="M .638 .694 L .56 .694 L .42700003 .35200004 C .411 .31100003 .33600004 .11800001 .32700003 .072000008 L .326 .072000008 C .31800003 .112 .275 .22200002 .266 .246 L .09300001 .694 L 0 .694 L .273 0 L .365 0 L .638 .694 Z "/>
</symbol>
<symbol id="font_3_4">
<path d="M .075 0 L .075 .694 L 0 .694 L 0 0 L .075 0 Z "/>
</symbol>
<symbol id="font_3_a">
<path d="M .35400004 .011000001 L .35400004 .45500005 L .27600003 .45500005 L .27600003 .16500002 C .27600003 .09 .22000003 .055000005 .15600002 .055000005 C .08500001 .055000005 .07800001 .081 .07800001 .124000009 L .07800001 .45500005 L 0 .45500005 L 0 .120000008 C 0 .048 .023000002 0 .106000009 0 C .15900001 0 .23000002 .016 .279 .059 L .279 .011000001 L .35400004 .011000001 Z "/>
</symbol>
<use xlink:href="#font_3_6" transform="matrix(27.673888,0,0,-27.673888,185.26226,38.61682)"/>
<use xlink:href="#font_3_8" transform="matrix(27.673888,0,0,-27.673888,202.55844,38.61682)"/>
<use xlink:href="#font_3_5" transform="matrix(27.673888,0,0,-27.673888,210.58388,38.921236)"/>
<use xlink:href="#font_3_7" transform="matrix(27.673888,0,0,-27.673888,225.85984,43.985559)"/>
<use xlink:href="#font_3_1" transform="matrix(27.673888,0,0,-27.673888,239.39237,38.921236)"/>
<use xlink:href="#font_3_3" transform="matrix(27.673888,0,0,-27.673888,251.98398,44.317644)"/>
<use xlink:href="#font_3_1" transform="matrix(27.673888,0,0,-27.673888,266.54045,38.921236)"/>
<use xlink:href="#font_3_9" transform="matrix(27.673888,0,0,-27.673888,278.883,38.921236)"/>
<use xlink:href="#font_3_2" transform="matrix(27.673888,0,0,-27.673888,289.31605,38.921236)"/>
<use xlink:href="#font_3_b" transform="matrix(27.673888,0,0,-27.673888,298.72517,38.61682)"/>
<use xlink:href="#font_3_1" transform="matrix(27.673888,0,0,-27.673888,317.54338,38.921236)"/>
<use xlink:href="#font_3_4" transform="matrix(27.673888,0,0,-27.673888,331.60166,38.61682)"/>
<use xlink:href="#font_3_a" transform="matrix(27.673888,0,0,-27.673888,338.21574,38.921236)"/>
<use xlink:href="#font_3_2" transform="matrix(27.673888,0,0,-27.673888,351.25013,38.921236)"/>
<symbol id="font_4_6">
<path d="M .23200003 .00999999 C .23200003 .012999982 .23200003 .014999986 .215 .03199999 C .09 .15799999 .058 .347 .058 .5 C .058 .674 .096 .84800007 .21900001 .97300007 C .23200003 .985 .23200003 .98700007 .23200003 .99 C .23200003 .99700006 .22800002 1 .222 1 C .21200001 1 .12200001 .93200007 .06299999 .805 C .012000002 .69500008 0 .584 0 .5 C 0 .422 .011 .301 .066 .188 C .126 .065 .21200001 0 .222 0 C .22800002 0 .23200003 .0029999912 .23200003 .00999999 Z "/>
</symbol>
<use xlink:href="#font_4_6" transform="matrix(27.673888,0,0,-27.673888,365.22859,45.535295)"/>
<symbol id="font_5_3">
<path d="M .54200008 .15400002 C .54200008 .16400002 .53300008 .16400002 .53000006 .16400002 C .52000007 .16400002 .52000007 .16100002 .51500007 .14600002 C .49500004 .078 .462 .022000002 .41300003 .022000002 C .396 .022000002 .389 .032 .389 .055000005 C .389 .080000009 .398 .104 .407 .126 C .426 .17900002 .468 .28900004 .468 .34600003 C .468 .41300003 .425 .45300005 .35300002 .45300005 C .263 .45300005 .21400002 .38900004 .19700001 .36600004 C .19200002 .42200003 .15100001 .45300005 .105000007 .45300005 C .059000009 .45300005 .040000008 .41400004 .030000003 .39600004 C .014 .36200003 0 .30300004 0 .29900003 C 0 .28900004 .012 .28900004 .012 .28900004 C .022000002 .28900004 .023 .29000003 .029000001 .31200005 C .046000005 .38300003 .06600001 .43100003 .10200001 .43100003 C .12200001 .43100003 .133 .418 .133 .38500003 C .133 .36400003 .13000001 .35300002 .11700001 .30100004 L .059000009 .07000001 C .056 .055000005 .050000006 .032 .050000006 .027000003 C .050000006 .009000001 .064 0 .079 0 C .091000009 0 .10900001 .008000001 .11600001 .028 C .11700001 .030000002 .12900001 .077 .135 .102000009 L .157 .19200002 C .163 .21400002 .16900002 .23600002 .17400001 .259 L .187 .30900003 C .202 .34000004 .255 .43100003 .35 .43100003 C .395 .43100003 .404 .39400003 .404 .36100004 C .404 .29900003 .355 .17100002 .33900003 .128 C .33 .105000007 .329 .093 .329 .082 C .329 .035 .364 0 .411 0 C .50500008 0 .54200008 .14600002 .54200008 .15400002 Z "/>
</symbol>
<symbol id="font_5_1">
<path d="M .117000009 .194 C .117000009 .26 .092 .29900003 .05300001 .29900003 C .020000004 .29900003 0 .274 0 .246 C 0 .21900001 .020000004 .193 .05300001 .193 C .065000008 .193 .078 .197 .08800001 .206 C .091 .208 .093 .209 .093 .209 C .093 .209 .095000009 .208 .095000009 .194 C .095000009 .12 .06000001 .060000004 .027000003 .026999996 C .016000003 .016000003 .016000003 .013999999 .016000003 .0109999929 C .016000003 .003999993 .021000006 0 .026 0 C .037 0 .117000009 .077 .117000009 .194 Z "/>
</symbol>
<symbol id="font_5_2">
<path d="M .45800004 .15400002 C .45800004 .16400002 .44900004 .16400002 .44600005 .16400002 C .43600003 .16400002 .43500004 .16000001 .43200005 .14600002 C .41500003 .081 .397 .022000002 .35600005 .022000002 C .32900004 .022000002 .32600004 .048 .32600004 .068 C .32600004 .092 .32800005 .09900001 .33200003 .116000007 L .47600005 .694 C .47600005 .694 .47600005 .705 .46300004 .705 C .44800005 .705 .35300002 .69600006 .33600004 .694 C .32800005 .693 .32200004 .688 .32200004 .675 C .32200004 .663 .33100004 .663 .34600003 .663 C .39400003 .663 .39600004 .656 .39600004 .646 L .39300005 .626 L .33300004 .38900004 C .31500004 .42600004 .286 .45300005 .24100001 .45300005 C .124 .45300005 0 .30600003 0 .16000001 C 0 .06600001 .055000005 0 .133 0 C .153 0 .20300001 .0040000008 .263 .075 C .27100004 .033000005 .30600003 0 .35400004 0 C .38900004 0 .41200004 .023000002 .42800004 .055000005 C .44500003 .091000009 .45800004 .15400002 .45800004 .15400002 M .31800003 .32600004 L .26800005 .13000001 C .263 .112 .263 .11000001 .24800001 .093 C .20400001 .038000004 .163 .022000002 .135 .022000002 C .08499999 .022000002 .07100001 .077 .07100001 .116000007 C .07100001 .16600001 .103 .28900004 .126 .335 C .157 .39400003 .202 .43100003 .242 .43100003 C .307 .43100003 .32100005 .34900005 .32100005 .34300003 C .32100005 .337 .31900005 .33100004 .31800003 .32600004 Z "/>
</symbol>
<symbol id="font_5_4">
<path d="M .439 .38300003 C .439 .43700005 .41300003 .45300005 .395 .45300005 C .37 .45300005 .34600003 .42700003 .34600003 .40500004 C .34600003 .39200003 .351 .38600005 .36200003 .37500004 C .38300003 .35500003 .396 .32900004 .396 .293 C .396 .25100003 .335 .022000002 .21800001 .022000002 C .16700001 .022000002 .14400001 .057000005 .14400001 .109000008 C .14400001 .16500002 .171 .23800002 .202 .321 C .209 .33800004 .21400002 .35200004 .21400002 .37100003 C .21400002 .41600005 .18200001 .45300005 .13200002 .45300005 C .038000004 .45300005 0 .30800004 0 .29900003 C 0 .28900004 .012 .28900004 .012 .28900004 C .022000002 .28900004 .023 .291 .028000003 .307 C .057000005 .40800003 .10000001 .43100003 .12900001 .43100003 C .13700001 .43100003 .15400002 .43100003 .15400002 .39900003 C .15400002 .374 .14400001 .34700004 .13700001 .32900004 C .09300001 .21300002 .080000009 .16700001 .080000009 .124000009 C .080000009 .016 .16800002 0 .21400002 0 C .382 0 .439 .33100004 .439 .38300003 Z "/>
</symbol>
<use xlink:href="#font_5_3" transform="matrix(27.673888,0,0,-27.673888,374.05253,38.921236)"/>
<use xlink:href="#font_5_1" transform="matrix(27.673888,0,0,-27.673888,392.23423,43.957883)"/>
<use xlink:href="#font_5_2" transform="matrix(27.673888,0,0,-27.673888,403.27613,38.921236)"/>
<use xlink:href="#font_5_1" transform="matrix(27.673888,0,0,-27.673888,418.96726,43.957883)"/>
<use xlink:href="#font_5_4" transform="matrix(27.673888,0,0,-27.673888,429.6771,38.921236)"/>
<symbol id="font_4_7">
<path d="M .232 .5 C .232 .578 .22100002 .699 .16600001 .81200006 C .106 .93500009 .020000004 1 .009999998 1 C .0040000008 1 0 .99600008 0 .99 C 0 .98700007 0 .985 .019000002 .967 C .117000009 .86800006 .174 .709 .174 .5 C .174 .329 .137 .153 .012999997 .026999996 C 0 .014999986 0 .012999982 0 .00999999 C 0 .003999993 .0040000008 0 .009999998 0 C .020000004 0 .11000001 .06799999 .169 .195 C .22 .305 .232 .416 .232 .5 Z "/>
</symbol>
<use xlink:href="#font_4_7" transform="matrix(27.673888,0,0,-27.673888,444.8496,45.535295)"/>
<path transform="matrix(2.7777777,0,0,-2.7777777,44.327779,203.95287)" stroke-width=".398" stroke-linecap="butt" stroke-miterlimit="10" stroke-linejoin="miter" fill="none" stroke="#000000" d="M 0 0 L 0 55.636 "/>
<symbol id="font_1_5">
<path d="M .51 .22800002 L .44700004 .22800002 C .445 .216 .436 .14500001 .41800005 .141 C .397 .13700001 .337 .13700001 .314 .13700001 L .177 .13700001 C .23200001 .178 .288 .21900001 .34600003 .256 C .42700006 .30800004 .51 .36100004 .51 .46100004 C .51 .58100005 .397 .656 .23800002 .656 C .102 .656 0 .60300007 0 .508 C 0 .45000003 .047 .42900003 .07700001 .42900003 C .113000009 .42900003 .155 .45400004 .155 .507 C .155 .555 .118 .57500007 .11500001 .57600006 C .15100001 .59900006 .19700001 .6 .209 .6 C .29400004 .6 .361 .546 .361 .46 C .361 .38300003 .30900003 .319 .251 .268 L .012999997 .057000005 C .001000002 .045 0 .044000005 0 .024 L 0 0 L .476 0 L .51 .22800002 Z "/>
</symbol>
<use xlink:href="#font_1_5" transform="matrix(19.371666,0,0,-19.371666,5.986722,74.5918)"/>
<use xlink:href="#font_5_4" transform="matrix(27.673888,0,0,-27.673888,73.358089,74.89621)"/>
<symbol id="font_6_1">
<path d="M .25100003 .463 C .25100003 .49400003 .224 .518 .192 .518 C .15200001 .518 .14200002 .485 .13800001 .472 L .0050000029 .039000006 L 0 .022 C 0 .010000002 .031000004 0 .039000006 0 C .047000007 0 .050000006 .0050000029 .054000006 .015000001 L .243 .432 C .24700001 .442 .25100003 .449 .25100003 .463 Z "/>
</symbol>
<use xlink:href="#font_6_1" transform="matrix(19.371666,0,0,-19.371666,87.89371,63.75593)"/>
<symbol id="font_7_2">
<path d="M .888 .261 C .888 .27100004 .88100007 .28100003 .86700007 .28100003 L .11 .28100003 C .185 .335 .23700002 .41700004 .25300003 .509 C .25300003 .517 .248 .522 .24200002 .522 L .224 .522 C .21900001 .522 .21400002 .518 .213 .513 C .194 .40100003 .114999998 .30900003 .007999998 .27100004 C .0040000008 .27 0 .26600004 0 .261 C 0 .256 .0040000008 .252 .007999998 .25100003 C .114999998 .21300002 .194 .12100001 .213 .009000001 C .21400002 .0040000008 .21900001 0 .224 0 L .24200002 0 C .248 0 .25300003 .005000001 .25300003 .013000001 C .23700002 .105000007 .185 .18700002 .11 .24100001 L .86700007 .24100001 C .88100007 .24100001 .888 .25100003 .888 .261 Z "/>
</symbol>
<symbol id="font_7_1">
<path d="M .611 .019999996 C .611 .040000008 .592 .040000008 .578 .040000008 L .033 .040000008 C .019000002 .040000008 0 .040000008 0 .019999996 C 0 0 .019000002 0 .033 0 L .578 0 C .592 0 .611 0 .611 .019999996 Z "/>
</symbol>
<use xlink:href="#font_7_2" transform="matrix(27.673888,0,0,-27.673888,103.93591,74.89621)"/>
<use xlink:href="#font_7_1" transform="matrix(27.673888,0,0,-27.673888,127.76312,68.22681)"/>
<use xlink:href="#font_5_4" transform="matrix(27.673888,0,0,-27.673888,155.4886,74.89621)"/>
<symbol id="font_7_4">
<path d="M .544 .033 L .544 .565 C .544 .59400007 .54 .59800007 .51100006 .59800007 L .033 .59800007 C .0040000008 .59800007 0 .59400007 0 .565 L 0 .034 C 0 .020000002 0 0 .019999996 0 C .04 0 .04 .019000002 .04 .033 L .04 .558 L .504 .558 L .504 .034 C .504 .020000002 .504 0 .52400007 0 C .544 0 .544 .019000002 .544 .033 Z "/>
</symbol>
<use xlink:href="#font_7_4" transform="matrix(27.673888,0,0,-27.673888,176.9325,74.5918)"/>
<symbol id="font_8_c">
<path d="M .41000004 .38700003 C .41000004 .42200003 .39800004 .45300005 .36900003 .45300005 C .34600003 .45300005 .321 .43000005 .321 .40700004 C .321 .39400003 .328 .38700003 .33400003 .38000003 C .358 .35400004 .36100004 .32200004 .36100004 .30100004 C .36100004 .27300004 .314 .022000002 .199 .022000002 C .14500001 .022000002 .134 .072000008 .134 .105000007 C .134 .16300002 .16600001 .25 .19300002 .32200004 C .19800002 .33800004 .204 .35300002 .204 .37200005 C .204 .42200003 .171 .45300005 .128 .45300005 C .035000005 .45300005 0 .305 0 .29900003 C 0 .28900004 .009999998 .28900004 .015000001 .28900004 C .028000005 .28900004 .029 .291 .033 .305 C .041 .33600004 .068 .43100003 .126 .43100003 C .13700001 .43100003 .148 .42800004 .148 .40200005 C .148 .37800003 .13800001 .351 .12400001 .31200005 C .09300001 .22700002 .073 .16700001 .073 .120000008 C .073 .029000003 .13700001 0 .19600001 0 C .36400003 0 .41000004 .36100004 .41000004 .38700003 Z "/>
</symbol>
<symbol id="font_8_1">
<path d="M .42700006 .15400002 C .42700006 .16400002 .41900004 .16400002 .41200007 .16400002 C .40000005 .16400002 .399 .16300002 .393 .14100002 C .379 .085 .36 .022000002 .32600004 .022000002 C .3 .022000002 .3 .049000004 .3 .063 C .3 .07000001 .3 .086 .30700005 .11400001 L .375 .38600005 C .379 .40000005 .379 .40200005 .379 .40700004 C .379 .42800004 .362 .43300004 .352 .43300004 C .32 .43300004 .31300003 .39900003 .31200005 .39400003 C .29300005 .43700005 .26100005 .45300005 .22900002 .45300005 C .118 .45300005 0 .30100004 0 .15500002 C 0 .07000001 .046000005 0 .12100001 0 C .15700002 0 .20100002 .021000002 .24100001 .07000001 C .25200004 .021000002 .28900004 0 .324 0 C .361 0 .38200004 .025000003 .397 .056 C .41500003 .094000007 .42700006 .15400002 .42700006 .15400002 M .24800001 .135 C .24000003 .10300001 .17800002 .022000002 .12300001 .022000002 C .076000008 .022000002 .068 .081 .068 .111 C .068 .16100002 .09900001 .27800004 .117 .32000003 C .142 .381 .18800001 .43100003 .22900002 .43100003 C .273 .43100003 .29800005 .37900005 .29800005 .337 C .29800005 .337 .297 .33 .29500003 .32400004 L .24800001 .135 Z "/>
</symbol>
<symbol id="font_8_6">
<path d="M .18599999 .15400002 C .18599999 .16400002 .178 .16400002 .171 .16400002 C .16600001 .16400002 .16 .16400002 .157 .15900001 L .15 .134 C .13300002 .064 .114 .022000002 .086 .022000002 C .06000001 .022000002 .06000001 .049000004 .06000001 .063 C .06000001 .07000001 .06000001 .085 .06600001 .109000008 L .20899999 .68 C .21000001 .683 .21200001 .693 .21200001 .693 C .21200001 .702 .206 .705 .19800002 .705 C .195 .705 .185 .704 .18200001 .703 L .083 .695 C .071 .694 .06000001 .693 .06000001 .674 C .06000001 .663 .07 .663 .084 .663 C .132 .663 .134 .656 .134 .646 C .134 .643 .13100001 .629 .13100001 .629 L .0059999974 .12900001 C .0050000029 .12500002 0 .105000007 0 .09 C 0 .037 .036000007 0 .084 0 C .122 0 .14200002 .027000003 .155 .052 C .17199999 .087000008 .18599999 .15100001 .18599999 .15400002 Z "/>
</symbol>
<use xlink:href="#font_8_c" transform="matrix(27.673888,0,0,-27.673888,202.13852,74.89621)"/>
<use xlink:href="#font_8_1" transform="matrix(27.673888,0,0,-27.673888,215.28363,74.89621)"/>
<use xlink:href="#font_8_6" transform="matrix(27.673888,0,0,-27.673888,229.3143,74.89621)"/>
<use xlink:href="#font_4_6" transform="matrix(27.673888,0,0,-27.673888,238.71463,81.51027)"/>
<use xlink:href="#font_5_3" transform="matrix(27.673888,0,0,-27.673888,247.53853,74.89621)"/>
<use xlink:href="#font_5_1" transform="matrix(27.673888,0,0,-27.673888,265.72029,79.93285)"/>
<use xlink:href="#font_5_2" transform="matrix(27.673888,0,0,-27.673888,276.76219,74.89621)"/>
<use xlink:href="#font_4_7" transform="matrix(27.673888,0,0,-27.673888,291.62733,81.51027)"/>
<symbol id="font_9_a">
<path d="M .106 .57100006 C .106 .6 .08200001 .624 .05300001 .624 C .024000004 .624 0 .6 0 .57100006 C 0 .542 .024000004 .518 .05300001 .518 C .08200001 .518 .106 .542 .106 .57100006 M .109000008 .19600001 C .109000008 .22500001 .107 .29900003 .05300001 .29900003 C .018 .29900003 0 .272 0 .246 C 0 .22 .017000005 .193 .05300001 .193 C .058000007 .193 .060999998 .194 .060999998 .194 C .06800001 .19500001 .079 .197 .087000008 .20400001 C .087000008 .176 .087000008 .098 .023000002 .023999989 C .016000003 .016000003 .016000003 .013999999 .016000003 .0109999929 C .016000003 .003999993 .021000006 0 .026 0 C .037 0 .109000008 .08 .109000008 .19600001 Z "/>
</symbol>
<use xlink:href="#font_9_a" transform="matrix(27.673888,0,0,-27.673888,303.19377,79.93285)"/>
<symbol id="font_1_4">
<path d="M .53200009 .193 C .53200009 .27 .471 .34 .35700003 .363 C .42900003 .39000003 .49600003 .442 .49600003 .526 C .49600003 .60400006 .416 .66800007 .256 .66800007 C .12 .66800007 .036 .6010001 .036 .51800009 C .036 .46800003 .072000008 .441 .11100001 .441 C .16100002 .441 .187 .47800002 .187 .51600006 C .187 .56700006 .14700002 .58500006 .137 .58800008 C .178 .61800006 .231 .62200006 .25100003 .62200006 C .349 .62200006 .349 .55700007 .349 .52900007 C .349 .483 .329 .391 .229 .386 C .204 .38500003 .17900002 .384 .17300001 .382 C .16 .37800003 .16 .366 .16 .36 C .16 .337 .17300001 .337 .192 .337 L .245 .337 C .36400003 .337 .36900003 .24700001 .36900003 .194 C .36900003 .152 .36900003 .051 .24900002 .051 C .222 .051 .15900001 .056 .116000007 .083000008 C .137 .09200001 .16300002 .11500001 .16300002 .158 C .16300002 .204 .13 .23900001 .08200001 .23900001 C .031999999 .23900001 0 .204 0 .157 C 0 .055 .11100001 0 .253 0 C .46200005 0 .53200009 .109000008 .53200009 .193 Z "/>
</symbol>
<use xlink:href="#font_1_4" transform="matrix(19.371666,0,0,-19.371666,5.7735426,110.80204)"/>
<symbol id="font_2_c">
<path d="M .23900001 0 L .23900001 .047000003 L .177 .047000003 L .177 .45000003 L .0029999987 .44200004 L .0029999987 .395 C .062000004 .395 .069000009 .395 .069000009 .356 L .069000009 .047000003 L 0 .047000003 L 0 0 L .12200001 .003 L .23900001 0 M .191 .60700008 C .191 .65000006 .156 .68500009 .113000009 .68500009 C .07000001 .68500009 .035 .65000006 .035 .60700008 C .035 .564 .07000001 .52900007 .113000009 .52900007 C .156 .52900007 .191 .564 .191 .60700008 Z "/>
</symbol>
<symbol id="font_2_4">
<path d="M .395 .61300006 C .395 .65500006 .35900004 .70000007 .28100003 .70000007 C .183 .70000007 .075 .65800008 .075 .545 L .075 .44400005 L 0 .44400005 L 0 .397 L .075 .397 L .075 .047000003 L .0059999974 .047000003 L .0059999974 0 L .132 .003 C .17000002 .003 .23400003 .003 .27 0 L .27 .047000003 L .183 .047000003 L .183 .397 L .298 .397 L .298 .44400005 L .17700002 .44400005 L .17700002 .545 C .17700002 .65500006 .25300003 .66400006 .27800004 .66400006 C .28300003 .66400006 .28800003 .66400006 .29500003 .66200008 C .28000004 .651 .272 .632 .272 .61300006 C .272 .57000008 .307 .551 .33300004 .551 C .36300005 .551 .395 .572 .395 .61300006 Z "/>
</symbol>
<use xlink:href="#font_2_c" transform="matrix(27.673888,0,0,-27.673888,73.856128,110.56958)"/>
<use xlink:href="#font_2_4" transform="matrix(27.673888,0,0,-27.673888,82.5734,110.56958)"/>
<use xlink:href="#font_5_4" transform="matrix(27.673888,0,0,-27.673888,104.28579,110.87399)"/>
<use xlink:href="#font_6_1" transform="matrix(19.371666,0,0,-19.371666,118.82141,99.73079)"/>
<symbol id="font_7_3">
<path d="M .499 .91200008 C .499 .919 .49300004 .93200007 .47900004 .93200007 C .46900005 .93200007 .46300007 .92600008 .45700003 .91400006 L .0069999995 .038000004 C .0009999871 .025999994 0 .024000004 0 .019999996 C 0 .012999997 .0059999974 0 .019999996 0 C .030000002 0 .036 .0059999974 .041999997 .017999992 L .49200005 .89400008 C .49800004 .9060001 .499 .90800008 .499 .91200008 Z "/>
</symbol>
<use xlink:href="#font_7_3" transform="matrix(27.673888,0,0,-27.673888,137.18822,116.54714)"/>
<symbol id="font_4_2">
<path d="M .665 .214 C .665 .23400001 .646 .23400001 .632 .23400001 L .033 .23400001 C .019000002 .23400001 0 .23400001 0 .214 C 0 .19400002 .019000002 .19400002 .034 .19400002 L .63100007 .19400002 C .646 .19400002 .665 .19400002 .665 .214 M .665 .02000001 C .665 .040000008 .646 .040000008 .63100007 .040000008 L .034 .040000008 C .019000002 .040000008 0 .040000008 0 .02000001 C 0 0 .019000002 0 .033 0 L .632 0 C .646 0 .665 0 .665 .02000001 Z "/>
</symbol>
<use xlink:href="#font_4_2" transform="matrix(27.673888,0,0,-27.673888,134.8913,106.888957)"/>
<use xlink:href="#font_8_c" transform="matrix(27.673888,0,0,-27.673888,164.84961,110.87399)"/>
<use xlink:href="#font_8_1" transform="matrix(27.673888,0,0,-27.673888,177.99469,110.87399)"/>
<use xlink:href="#font_8_6" transform="matrix(27.673888,0,0,-27.673888,192.02539,110.87399)"/>
<use xlink:href="#font_4_6" transform="matrix(27.673888,0,0,-27.673888,201.42295,117.48805)"/>
<use xlink:href="#font_5_3" transform="matrix(27.673888,0,0,-27.673888,210.24968,110.87399)"/>
<use xlink:href="#font_5_1" transform="matrix(27.673888,0,0,-27.673888,228.43141,115.91064)"/>
<use xlink:href="#font_5_2" transform="matrix(27.673888,0,0,-27.673888,239.47332,110.87399)"/>
<use xlink:href="#font_4_7" transform="matrix(27.673888,0,0,-27.673888,254.33843,117.48805)"/>
<symbol id="font_2_a">
<path d="M .36100004 .13000001 L .36100004 .183 L .314 .183 L .314 .132 C .314 .064 .282 .040000004 .254 .040000004 C .19600001 .040000004 .19600001 .104 .19600001 .127 L .19600001 .40300004 L .342 .40300004 L .342 .45000006 L .19600001 .45000006 L .19600001 .64100006 L .149 .64100006 C .14800002 .541 .09900001 .44200004 0 .43900005 L 0 .40300004 L .082 .40300004 L .082 .12900001 C .082 .022 .16900002 0 .24000001 0 C .316 0 .36100004 .057000005 .36100004 .13000001 Z "/>
</symbol>
<symbol id="font_2_5">
<path d="M .57 0 L .57 .047000003 L .501 .047000003 L .501 .30600003 C .501 .411 .44700004 .45000003 .347 .45000003 C .251 .45000003 .2 .39200003 .178 .354 L .17700002 .354 L .17700002 .694 L 0 .68600007 L 0 .63900008 C .062000008 .63900008 .069000009 .63900008 .069000009 .6 L .069000009 .047000003 L 0 .047000003 L 0 0 L .126 .003 L .25200004 0 L .25200004 .047000003 L .18300002 .047000003 L .18300002 .256 C .18300002 .365 .269 .41400004 .33200003 .41400004 C .366 .41400004 .38700003 .393 .38700003 .317 L .38700003 .047000003 L .31800003 .047000003 L .31800003 0 L .444 .003 L .57 0 Z "/>
</symbol>
<symbol id="font_2_6">
<path d="M .57 0 L .57 .047000003 L .501 .047000003 L .501 .30600003 C .501 .411 .44700004 .45000003 .347 .45000003 C .251 .45000003 .19800002 .393 .172 .342 L .172 .45000003 L 0 .44200004 L 0 .395 C .062000008 .395 .069000009 .395 .069000009 .356 L .069000009 .047000003 L 0 .047000003 L 0 0 L .126 .003 L .25200004 0 L .25200004 .047000003 L .18300002 .047000003 L .18300002 .256 C .18300002 .365 .269 .41400004 .33200003 .41400004 C .366 .41400004 .38700003 .393 .38700003 .317 L .38700003 .047000003 L .31800003 .047000003 L .31800003 0 L .444 .003 L .57 0 Z "/>
</symbol>
<use xlink:href="#font_2_a" transform="matrix(27.673888,0,0,-27.673888,273.3283,110.73563)"/>
<use xlink:href="#font_2_5" transform="matrix(27.673888,0,0,-27.673888,286.3627,110.56958)"/>
<use xlink:href="#font_2_3" transform="matrix(27.673888,0,0,-27.673888,303.68656,110.73563)"/>
<use xlink:href="#font_2_6" transform="matrix(27.673888,0,0,-27.673888,318.63044,110.56958)"/>
<path transform="matrix(2.7777777,0,0,-2.7777777,86.94723,194.41951)" stroke-width=".398" stroke-linecap="butt" stroke-miterlimit="10" stroke-linejoin="miter" fill="none" stroke="#000000" d="M 0 0 L 0 26.301 "/>
<symbol id="font_1_2">
<path d="M .566 0 L .566 .056 L .45700003 .056 L .45700003 .15400002 L .566 .15400002 L .566 .21000001 L .45700003 .21000001 L .45700003 .62700006 C .45700003 .657 .45200003 .66200008 .42200003 .66200008 L .40700004 .66200008 C .38800005 .66200008 .38000003 .66200008 .367 .647 L 0 .21000001 L 0 .15400002 L .32000003 .15400002 L .32000003 .056 L .19600001 .056 L .19600001 0 C .24500002 .004 .33500005 .004 .38700003 .004 C .40900005 .004 .541 .002 .566 0 M .33300004 .21000001 L .069000009 .21000001 L .33300004 .52400007 L .33300004 .21000001 Z "/>
</symbol>
<use xlink:href="#font_1_2" transform="matrix(19.371666,0,0,-19.371666,6.552653,146.54456)"/>
<use xlink:href="#font_8_c" transform="matrix(27.673888,0,0,-27.673888,117.471927,146.84897)"/>
<use xlink:href="#font_8_1" transform="matrix(27.673888,0,0,-27.673888,130.617,146.84897)"/>
<use xlink:href="#font_8_6" transform="matrix(27.673888,0,0,-27.673888,144.6477,146.84897)"/>
<use xlink:href="#font_4_6" transform="matrix(27.673888,0,0,-27.673888,154.04526,153.46303)"/>
<use xlink:href="#font_5_3" transform="matrix(27.673888,0,0,-27.673888,162.86919,146.84897)"/>
<use xlink:href="#font_5_1" transform="matrix(27.673888,0,0,-27.673888,181.05092,151.88562)"/>
<use xlink:href="#font_5_2" transform="matrix(27.673888,0,0,-27.673888,192.09282,146.84897)"/>
<use xlink:href="#font_4_7" transform="matrix(27.673888,0,0,-27.673888,206.95793,153.46303)"/>
<use xlink:href="#font_7_2" transform="matrix(27.673888,0,0,-27.673888,225.3526,146.84897)"/>
<use xlink:href="#font_7_1" transform="matrix(27.673888,0,0,-27.673888,249.17981,140.17957)"/>
<use xlink:href="#font_5_4" transform="matrix(27.673888,0,0,-27.673888,276.90534,146.84897)"/>
<use xlink:href="#font_6_1" transform="matrix(19.371666,0,0,-19.371666,291.44093,135.7087)"/>
<use xlink:href="#font_9_a" transform="matrix(27.673888,0,0,-27.673888,300.65495,151.88562)"/>
<symbol id="font_1_1">
<path d="M .51 .213 C .51 .319 .43199999 .42200003 .26 .42200003 C .221 .42200003 .16900002 .41700004 .12100001 .389 L .12100001 .508 C .157 .503 .18300002 .503 .19500001 .503 C .219 .503 .288 .503 .362 .54700008 C .39100004 .56400009 .45999999 .61500009 .45999999 .64500007 C .45999999 .64900007 .45999999 .66800007 .44200004 .66800007 C .44200004 .66800007 .43800003 .66800007 .426 .66400006 C .36 .6420001 .301 .63600006 .255 .63600006 C .214 .63600006 .15200001 .64100006 .08600001 .66300007 C .072 .66800007 .068 .66800007 .068 .66800007 C .050000006 .66800007 .050000006 .65200009 .050000006 .637 L .050000006 .34100003 C .050000006 .321 .050000006 .307 .078999999 .307 C .089 .307 .096 .307 .104 .315 C .12300001 .336 .16000001 .37600003 .255 .37600003 C .35900004 .37600003 .35900004 .289 .35900004 .21700001 C .35900004 .15 .35900004 .051 .221 .051 C .17400001 .051 .12200001 .067 .09300001 .10000001 C .143 .113000009 .147 .155 .147 .17 C .147 .21900001 .109 .244 .074 .244 C .038000004 .244 0 .22 0 .169 C 0 .07700001 .09 0 .22500001 0 C .41400004 0 .51 .10000001 .51 .213 Z "/>
</symbol>
<use xlink:href="#font_1_1" transform="matrix(19.371666,0,0,-19.371666,7.095029,182.75199)"/>
<symbol id="font_9_3">
<path d="M .305 0 L .305 .031000002 L .279 .031000002 C .20000002 .031000002 .19700001 .042000005 .19700001 .078 L .19700001 .605 C .19700001 .64100006 .20000002 .652 .279 .652 L .305 .652 L .305 .683 C .27 .68 .19100002 .68 .15300001 .68 C .11400001 .68 .035 .68 0 .683 L 0 .652 L .026 .652 C .105000007 .652 .10800001 .64100006 .10800001 .605 L .10800001 .078 C .10800001 .042000005 .105000007 .031000002 .026 .031000002 L 0 .031000002 L 0 0 C .035 .003 .11400001 .003 .15200001 .003 C .19100002 .003 .27 .003 .305 0 Z "/>
</symbol>
<symbol id="font_9_4">
<path d="M .503 0 L .503 .031000002 C .451 .031000002 .42600004 .031000002 .425 .061000006 L .425 .252 C .425 .33800004 .425 .36900003 .39400003 .40500004 C .38000003 .42200003 .347 .44200004 .289 .44200004 C .216 .44200004 .169 .39900003 .141 .337 L .141 .44200004 L 0 .43100003 L 0 .4 C .07000001 .4 .07800001 .393 .07800001 .344 L .07800001 .076000008 C .07800001 .031000002 .067 .031000002 0 .031000002 L 0 0 L .113000009 .003 L .225 0 L .225 .031000002 C .158 .031000002 .147 .031000002 .147 .076000008 L .147 .26000003 C .147 .36400003 .218 .42000003 .282 .42000003 C .345 .42000003 .356 .36600004 .356 .30900003 L .356 .076000008 C .356 .031000002 .345 .031000002 .278 .031000002 L .278 0 L .391 .003 L .503 0 Z "/>
</symbol>
<symbol id="font_9_9">
<path d="M .32700003 .13900002 C .32700003 .19200002 .29700003 .22200002 .28500004 .23400001 C .25200004 .26600004 .213 .27400003 .171 .28200004 C .115 .293 .048 .30600003 .048 .36400003 C .048 .39900003 .07400001 .44000004 .16 .44000004 C .27 .44000004 .27500005 .35000003 .277 .31900005 C .27800004 .31000004 .28900004 .31000004 .28900004 .31000004 C .30200003 .31000004 .30200003 .31500004 .30200003 .33400003 L .30200003 .43500004 C .30200003 .45200003 .30200003 .45900003 .291 .45900003 C .286 .45900003 .284 .45900003 .27100004 .44700004 C .26800005 .44300003 .25800003 .43400003 .254 .43100003 C .21600002 .45900003 .17500001 .45900003 .16 .45900003 C .038000004 .45900003 0 .39200003 0 .33600004 C 0 .30100004 .016000003 .27300004 .043000007 .25100003 C .075 .22500003 .10300001 .21900001 .17500001 .20500002 C .197 .20100002 .279 .18500002 .279 .113000009 C .279 .062000004 .24400002 .022000002 .16600001 .022000002 C .082 .022000002 .046000005 .079 .027000003 .16400002 C .024000004 .17700002 .023000002 .18100001 .013000004 .18100001 C 0 .18100001 0 .17400001 0 .15600002 L 0 .024 C 0 .0070000009 0 0 .011000004 0 C .016000003 0 .017 .0010000002 .036000007 .020000002 C .038000004 .022000002 .038000004 .024 .056 .043 C .1 .0010000002 .14500001 0 .16600001 0 C .28100003 0 .32700003 .067 .32700003 .13900002 Z "/>
</symbol>
<symbol id="font_9_1">
<path d="M .38700003 .13000001 C .38700003 .14000002 .379 .14200002 .374 .14200002 C .365 .14200002 .36300005 .136 .36100004 .128 C .326 .025000003 .236 .025000003 .22600001 .025000003 C .17600002 .025000003 .136 .055000005 .113000009 .092 C .083000008 .14000002 .083000008 .20600002 .083000008 .24200002 L .36200003 .24200002 C .38400004 .24200002 .38700003 .24200002 .38700003 .263 C .38700003 .36200003 .33300004 .45900003 .20800002 .45900003 C .09200001 .45900003 0 .35600005 0 .23100002 C 0 .097 .105000007 0 .22000002 0 C .342 0 .38700003 .111 .38700003 .13000001 M .321 .263 L .08400001 .263 C .09 .41200004 .17400001 .43700005 .20800002 .43700005 C .31100003 .43700005 .321 .30200003 .321 .263 Z "/>
</symbol>
<symbol id="font_9_8">
<path d="M .33600004 .381 C .33600004 .41300003 .305 .44200004 .26200003 .44200004 C .18900001 .44200004 .15300001 .37500004 .13900002 .33200003 L .13900002 .44200004 L 0 .43100003 L 0 .4 C .07000001 .4 .07800001 .393 .07800001 .344 L .07800001 .076000008 C .07800001 .031000002 .067 .031000002 0 .031000002 L 0 0 L .11400001 .003 C .15400002 .003 .20100002 .003 .24100003 0 L .24100003 .031000002 L .22000002 .031000002 C .14600002 .031000002 .14400001 .042000005 .14400001 .078 L .14400001 .23200001 C .14400001 .33100004 .18600002 .42000003 .26200003 .42000003 C .26900003 .42000003 .27100004 .42000003 .27300004 .41900004 C .27 .418 .25000004 .40600003 .25000004 .38000003 C .25000004 .35200004 .27100004 .337 .293 .337 C .31100003 .337 .33600004 .349 .33600004 .381 Z "/>
</symbol>
<symbol id="font_9_b">
<path d="M .31300003 .135 L .31300003 .19200002 L .28800003 .19200002 L .28800003 .13700001 C .28800003 .063 .25800003 .025000003 .22100002 .025000003 C .15400002 .025000003 .15400002 .116000007 .15400002 .13300002 L .15400002 .411 L .29700003 .411 L .29700003 .44200004 L .15400002 .44200004 L .15400002 .626 L .12900001 .626 C .12799999 .544 .098000008 .43700005 0 .43300004 L 0 .411 L .085 .411 L .085 .135 C .085 .012000001 .178 0 .21400002 0 C .28500004 0 .31300003 .071 .31300003 .135 Z "/>
</symbol>
<use xlink:href="#font_9_3" transform="matrix(27.673888,0,0,-27.673888,115.94986,182.51953)"/>
<use xlink:href="#font_9_4" transform="matrix(27.673888,0,0,-27.673888,126.05082,182.51953)"/>
<use xlink:href="#font_9_9" transform="matrix(27.673888,0,0,-27.673888,141.46515,182.82395)"/>
<use xlink:href="#font_9_1" transform="matrix(27.673888,0,0,-27.673888,152.25797,182.82395)"/>
<use xlink:href="#font_9_8" transform="matrix(27.673888,0,0,-27.673888,164.57288,182.51953)"/>
<use xlink:href="#font_9_b" transform="matrix(27.673888,0,0,-27.673888,175.17195,182.82395)"/>
<use xlink:href="#font_4_6" transform="matrix(27.673888,0,0,-27.673888,197.32306,189.438)"/>
<use xlink:href="#font_5_3" transform="matrix(27.673888,0,0,-27.673888,206.14696,182.82395)"/>
<use xlink:href="#font_5_1" transform="matrix(27.673888,0,0,-27.673888,224.32869,187.8606)"/>
<use xlink:href="#font_5_2" transform="matrix(27.673888,0,0,-27.673888,235.37059,182.82395)"/>
<use xlink:href="#font_4_7" transform="matrix(27.673888,0,0,-27.673888,250.23574,189.438)"/>
<symbol id="font_9_c">
<path d="M .21400002 0 L .21400002 .031000002 C .148 .031000002 .144 .036000004 .144 .075 L .144 .44200004 L .0040000008 .43100003 L .0040000008 .4 C .069000009 .4 .07800001 .39400003 .07800001 .34500004 L .07800001 .076000008 C .07800001 .031000002 .067 .031000002 0 .031000002 L 0 0 L .11000001 .003 C .14500001 .003 .18 .001 .21400002 0 M .15900001 .60400006 C .15900001 .63100007 .136 .657 .10600001 .657 C .072000008 .657 .052 .629 .052 .60400006 C .052 .577 .075 .551 .10500001 .551 C .139 .551 .15900001 .57900008 .15900001 .60400006 Z "/>
</symbol>
<symbol id="font_9_5">
<path d="M .44300003 .22500003 C .44300003 .35300002 .34300003 .45900003 .222 .45900003 C .097 .45900003 0 .35000003 0 .22500003 C 0 .096 .104 0 .22100002 0 C .342 0 .44300003 .098000008 .44300003 .22500003 M .36 .23300003 C .36 .19700001 .36 .143 .33800004 .09900001 C .316 .054 .272 .025000003 .222 .025000003 C .17900002 .025000003 .135 .046 .10800001 .092 C .083000008 .136 .083000008 .19700001 .083000008 .23300003 C .083000008 .272 .083000008 .32600004 .10700001 .37000004 C .134 .41600005 .18100001 .43700005 .22100002 .43700005 C .26500003 .43700005 .30800004 .41500003 .33400003 .37200005 C .36 .32900004 .36 .27100004 .36 .23300003 Z "/>
</symbol>
<use xlink:href="#font_9_c" transform="matrix(27.673888,0,0,-27.673888,269.56047,182.51953)"/>
<use xlink:href="#font_9_4" transform="matrix(27.673888,0,0,-27.673888,277.2261,182.51953)"/>
<use xlink:href="#font_9_b" transform="matrix(27.673888,0,0,-27.673888,291.47819,182.82395)"/>
<use xlink:href="#font_9_5" transform="matrix(27.673888,0,0,-27.673888,302.49244,182.82395)"/>
<symbol id="font_8_7">
<path d="M .7900001 .67 C .7900001 .67800006 .7860001 .683 .77700009 .683 C .74600008 .683 .71300008 .68 .68100008 .68 C .64900007 .68 .61500009 .683 .58400008 .683 C .57900008 .683 .56600007 .683 .56600007 .66400006 C .56600007 .65300008 .57500007 .652 .58400008 .652 C .63600006 .65000006 .64400008 .63000008 .64400008 .609 C .64400008 .6 .6420001 .59300008 .64000007 .58500006 L .53000006 .14600002 L .34300003 .666 C .337 .68200007 .33600004 .683 .315 .683 L .19 .683 C .17400001 .683 .163 .683 .163 .66400006 C .163 .652 .171 .652 .19 .652 C .197 .652 .25100003 .652 .25100003 .64400008 C .25100003 .64400008 .25100003 .64100006 .248 .63100007 L .116 .101 C .102 .046000005 .065 .033 .018999998 .031000002 C .011000004 .031000002 0 .030000002 0 .012 C 0 .003 .006000001 0 .013 0 C .043 0 .07700001 .003 .107999999 .003 C .14 .003 .17500001 0 .206 0 C .21200001 0 .224 0 .224 .018000002 C .224 .030000002 .21700001 .031000002 .20500002 .031000002 C .148 .033 .146 .059000005 .146 .074 C .146 .07700001 .146 .083000008 .15 .09900001 L .279 .614 L .49400006 .017 C .49900005 .002 .50000008 0 .51400008 0 C .52500006 0 .52900007 .001 .53400006 .020000002 L .6740001 .58400008 C .69000008 .648 .74600008 .651 .77500006 .652 C .77800008 .652 .7900001 .65300008 .7900001 .67 Z "/>
</symbol>
<symbol id="font_8_8">
<path d="M .399 .28900004 C .399 .38400004 .34 .45300005 .253 .45300005 C .12900001 .45300005 0 .31100003 0 .16500002 C 0 .062000004 .063 0 .146 0 C .27 0 .399 .14200002 .399 .28900004 M .329 .328 C .329 .28500004 .307 .18200001 .275 .12200001 C .24599999 .067 .195 .022000002 .146 .022000002 C .107 .022000002 .07 .053000004 .07 .12500002 C .07 .17500001 .09600001 .286 .12799999 .34000004 C .16499999 .40100003 .213 .43100003 .252 .43100003 C .301 .43100003 .329 .38700003 .329 .328 Z "/>
</symbol>
<symbol id="font_8_2">
<path d="M .42700003 .15400002 C .42700003 .16400002 .419 .16400002 .41200004 .16400002 C .4 .16400002 .39900003 .16300002 .39300005 .14100002 C .379 .085 .36 .022000002 .326 .022000002 C .3 .022000002 .3 .049000004 .3 .063 C .3 .07000001 .3 .085 .30600003 .109000008 L .44900004 .68 C .45000003 .683 .452 .693 .452 .693 C .452 .702 .446 .705 .438 .705 C .43500004 .705 .42500005 .704 .42200003 .703 L .323 .695 C .31100003 .694 .3 .693 .3 .674 C .3 .663 .31 .663 .324 .663 C .372 .663 .374 .656 .374 .646 C .374 .643 .37100003 .629 .37100003 .629 L .31300003 .395 C .298 .42600004 .271 .45300005 .229 .45300005 C .11800001 .45300005 0 .30100004 0 .15500002 C 0 .07000001 .04600001 0 .121000017 0 C .157 0 .201 .021000002 .241 .07000001 C .252 .021000002 .289 0 .324 0 C .361 0 .382 .025000003 .39699999 .056 C .415 .094000007 .42700003 .15400002 .42700003 .15400002 M .24700001 .13300002 C .239 .102000009 .178 .022000002 .123 .022000002 C .07600001 .022000002 .06800001 .081 .06800001 .111 C .06800001 .16100002 .099000018 .27800004 .117000009 .32000003 C .14199999 .381 .188 .43100003 .229 .43100003 C .23700002 .43100003 .26000003 .43000005 .278 .40200005 C .28800003 .38600005 .298 .35700003 .298 .33800004 C .298 .335 .29700003 .33100004 .29500003 .32500003 L .24700001 .13300002 Z "/>
</symbol>
<symbol id="font_8_3">
<path d="M .35400004 .115 C .35400004 .120000008 .34600003 .13100001 .338 .13100001 C .334 .13100001 .333 .13000001 .325 .120000008 C .251 .026 .16200002 .022000002 .145 .022000002 C .08 .022000002 .069000009 .093 .069000009 .13200002 C .069000009 .17000002 .078999999 .21500002 .085999999 .24200002 L .125 .24200002 C .15500002 .24200002 .22200002 .24500002 .26999999 .26400004 C .34900005 .29600004 .34900005 .36100004 .34900005 .36800004 C .34900005 .41400004 .31200005 .45300005 .24800001 .45300005 C .14299999 .45300005 0 .35200004 0 .17500001 C 0 .085 .047999994 0 .14299999 0 C .27100004 0 .35400004 .1 .35400004 .115 M .311 .37000004 C .311 .26400004 .14600002 .26400004 .113000009 .26400004 L .09200001 .26400004 C .135 .42800004 .23800002 .43100003 .24800001 .43100003 C .288 .43100003 .311 .404 .311 .37000004 Z "/>
</symbol>
<symbol id="font_8_d">
<path d="M .91600009 .69400009 C .91600009 .69400009 .91600009 .70500007 .9040001 .70500007 C .8810001 .70500007 .8550001 .702 .83100005 .702 C .7990001 .702 .76400008 .70500007 .73200008 .70500007 C .726 .70500007 .71300008 .70500007 .71300008 .68600007 C .71300008 .6750001 .72200009 .674 .72900006 .674 C .74600008 .67300006 .78000006 .66700008 .78000006 .63600006 C .78000006 .6240001 .77500006 .61500009 .76900008 .60400006 L .51600006 .13800001 L .49400003 .63000008 C .49400003 .63000008 .49300004 .633 .49300004 .637 C .49300004 .65400007 .499 .67300006 .564 .674 C .572 .674 .58400008 .674 .58400008 .69400009 C .58400008 .70300009 .57600006 .70500007 .57000008 .70500007 C .53300008 .70500007 .49400003 .702 .45700003 .702 C .425 .702 .39000006 .70500007 .35900004 .70500007 C .35500003 .70500007 .34100003 .70500007 .34100003 .68600007 C .34100003 .674 .352 .674 .36200006 .674 C .40400005 .674 .40800006 .66800007 .41000004 .65300008 C .411 .64900007 .41400004 .586 .41400004 .586 C .41400004 .57800009 .41400004 .57600006 .40800006 .56600007 L .17500001 .13800001 L .15300003 .62700006 C .15200001 .64800009 .15100003 .67300006 .21800003 .674 C .23200003 .674 .24300003 .674 .24300003 .693 C .24300003 .70500007 .23200003 .70500007 .229 .70500007 C .192 .70500007 .15300003 .702 .116 .702 C .08400002 .702 .048999996 .70500007 .018000007 .70500007 C .0140000139 .70500007 0 .70500007 0 .68600007 C 0 .674 .010000005 .674 .024000004 .674 C .069000009 .674 .069000009 .66600009 .07000002 .642 L .09800002 .025000003 C .09900001 .0040000008 .10100001 0 .116 0 C .13100001 0 .134 .005000001 .14200002 .020000002 L .417 .52300009 L .439 .025000003 C .44 .006000001 .44 0 .45700003 0 C .46500004 0 .47300006 0 .48300005 .018000002 L .79600009 .59200009 C .8300001 .65400007 .85400006 .67 .902 .674 C .912 .6750001 .91600009 .6840001 .91600009 .69400009 Z "/>
</symbol>
<symbol id="font_8_9">
<path d="M .40600003 .39000003 C .40600003 .44200004 .34100003 .45300005 .30800004 .45300005 C .23900002 .45300005 .20300001 .40300004 .187 .381 C .176 .43400003 .13700001 .45300005 .104 .45300005 C .068 .45300005 .048000009 .43000005 .031999999 .40000005 C .012999997 .36 0 .29900003 0 .29900003 C 0 .28900004 .009999998 .28900004 .015000001 .28900004 C .028000005 .28900004 .029 .29000003 .034 .31200005 C .052 .38200004 .07100001 .43100003 .102 .43100003 C .128 .43100003 .128 .40200005 .128 .39100004 C .128 .37500004 .125 .35600005 .12100001 .34000004 L .046000005 .040000004 C .044 .034 .042999999 .029000003 .042999999 .026 C .042999999 .015000001 .051 0 .07100001 0 C .10100001 0 .10800001 .029000003 .11 .037 L .17500001 .29900003 C .176 .30200003 .22100002 .43100003 .307 .43100003 C .312 .43100003 .34 .43100003 .36 .41700004 C .32500003 .40600003 .32200004 .374 .32200004 .36900003 C .32200004 .35600005 .33100004 .337 .35700003 .337 C .37500004 .337 .40600003 .351 .40600003 .39000003 Z "/>
</symbol>
<symbol id="font_8_4">
<path d="M .40900005 .15400002 C .40900005 .16400002 .40100003 .16400002 .394 .16400002 C .38200004 .16400002 .38100005 .16300002 .375 .14100002 C .362 .09 .343 .022000002 .29900003 .022000002 C .272 .022000002 .27000005 .045 .27000005 .065000008 C .27000005 .08800001 .277 .116000007 .278 .12100001 C .283 .14200002 .283 .143 .283 .15600002 C .283 .22400002 .21300002 .25100003 .15 .26000003 C .17300001 .27400003 .19400002 .29500003 .221 .32600004 C .273 .38500003 .31200005 .43100003 .362 .43100003 C .38100005 .43100003 .389 .41900004 .389 .41900004 C .347 .41200004 .342 .37700004 .342 .36900003 C .342 .35600005 .351 .337 .37700004 .337 C .39900006 .337 .42700006 .35500003 .42700006 .39300005 C .42700006 .41900004 .40900005 .45300005 .36400003 .45300005 C .311 .45300005 .268 .411 .23400001 .37100003 C .177 .305 .16100002 .28900004 .126 .272 L .228 .68 C .22900002 .683 .23100002 .693 .23100002 .693 C .23100002 .702 .22500001 .705 .21700002 .705 C .214 .705 .20400001 .704 .20100002 .703 L .102 .695 C .09 .694 .07900001 .693 .07900001 .674 C .07900001 .663 .089 .663 .103 .663 C .15100001 .663 .15300001 .656 .15300001 .646 C .15300001 .643 .15 .629 .15 .629 L .002000004 .039 C .001000002 .037 0 .026 0 .026 C 0 .015000001 .009000003 0 .028000005 0 C .058 0 .065 .028 .067 .037 L .118 .24000003 C .155 .23500002 .219 .21400002 .219 .15600002 C .219 .14900002 .219 .14500001 .216 .13100001 C .212 .11400001 .212 .107 .212 .097 C .212 .025000003 .259 0 .296 0 C .34000004 0 .362 .033000005 .37300004 .052 C .39500005 .09 .40900005 .15100001 .40900005 .15400002 Z "/>
</symbol>
<symbol id="font_8_5">
<path d="M .56200006 .246 C .56200006 .25800003 .5500001 .25800003 .54700008 .25800003 C .535 .25800003 .53400006 .25500003 .52700009 .23600002 C .49500004 .147 .452 .031000002 .296 .031000002 L .215 .031000002 C .184 .031000002 .184 .034 .184 .041 C .184 .047000003 .187 .057000005 .188 .063 L .324 .60700008 C .333 .642 .33900003 .652 .42000003 .652 L .43 .652 C .447 .652 .45800004 .652 .45800004 .671 C .45800004 .683 .447 .683 .443 .683 C .398 .683 .351 .68 .305 .68 C .264 .68 .222 .683 .18200001 .683 C .176 .683 .163 .683 .163 .66400006 C .163 .652 .171 .652 .19 .652 C .22100002 .652 .248 .652 .248 .63500007 C .248 .632 .248 .63000008 .24400002 .61600008 L .109 .07300001 C .100999999 .039 .095 .031000002 .026999999 .031000002 C .011000004 .031000002 0 .031000002 0 .012 C 0 0 .009 0 .025000003 0 L .45300005 0 C .475 0 .47600005 .001 .48200003 .018000002 L .558 .23300001 L .56200006 .246 Z "/>
</symbol>
<symbol id="font_8_e">
<path d="M .24800003 .15400002 C .24800003 .16400002 .24000001 .16400002 .23300001 .16400002 C .22 .16400002 .22 .16200002 .21600002 .14700002 C .208 .11800001 .181 .022000002 .12300001 .022000002 C .11500001 .022000002 .10100001 .023000002 .10100001 .05 C .10100001 .076000008 .11400001 .109000008 .127 .14600002 L .19100002 .31700004 C .201 .34600003 .20300001 .35400004 .20300001 .37300004 C .20300001 .42800004 .165 .45300005 .128 .45300005 C .034 .45300005 0 .30400003 0 .29900003 C 0 .28900004 .009999998 .28900004 .015000001 .28900004 C .028000005 .28900004 .029 .291 .033 .305 C .041999997 .33800004 .068 .43100003 .126 .43100003 C .13700001 .43100003 .148 .42600004 .148 .40300004 C .148 .37900005 .13700001 .35000003 .13000001 .33100004 L .10000001 .24800003 L .06300001 .14900002 C .048999996 .111 .045 .1 .045 .080000009 C .045 .041 .069000009 0 .12100001 0 C .215 0 .24800003 .15000002 .24800003 .15400002 M .275 .622 C .275 .643 .26000003 .665 .23000002 .665 C .19800002 .665 .16600001 .634 .16600001 .602 C .16600001 .58 .18200001 .559 .211 .559 C .243 .559 .275 .59000006 .275 .622 Z "/>
</symbol>
<symbol id="font_8_a">
<path d="M .317 .16800002 C .317 .25500003 .23900002 .27300004 .19800002 .28200004 C .17 .28800003 .134 .29600004 .134 .33900003 C .134 .36300005 .155 .43100003 .23500002 .43100003 C .26200003 .43100003 .29900003 .42100004 .31 .38200004 C .278 .37800003 .27 .351 .27 .34100003 C .27 .33 .27600003 .31300003 .3 .31300003 C .317 .31300003 .34300003 .32500003 .34300003 .36800004 C .34300003 .41400004 .30200003 .45300005 .236 .45300005 C .119 .45300005 .07800001 .35700003 .07800001 .305 C .07800001 .22800002 .143 .21400002 .171 .20800002 C .215 .19800002 .26000003 .18800001 .26000003 .134 C .26000003 .102000009 .23300001 .022000002 .13000001 .022000002 C .10800001 .022000002 .049999998 .027000003 .034 .078 C .08500001 .083000008 .08500001 .127 .08500001 .127 C .08500001 .14600002 .072 .15900001 .051 .15900001 C .027999998 .15900001 0 .14200002 0 .097 C 0 .036000004 .058 0 .12900001 0 C .279 0 .317 .12200001 .317 .16800002 Z "/>
</symbol>
<symbol id="font_8_b">
<path d="M .265 .15400002 C .265 .16400002 .25700004 .16400002 .25 .16400002 C .23800002 .16400002 .23800002 .16300002 .23 .14500001 C .212 .097 .172 .022000002 .11500001 .022000002 C .088 .022000002 .088 .047000003 .088 .063 C .088 .07000001 .088 .086 .095 .11400001 L .16900002 .411 L .254 .411 C .27100004 .411 .282 .411 .282 .43000005 C .282 .44200004 .273 .44200004 .25700004 .44200004 L .177 .44200004 L .214 .59000006 C .21800001 .60400006 .21800001 .606 .21800001 .611 C .21800001 .632 .20100002 .637 .191 .637 C .166 .637 .156 .616 .15200001 .601 L .113000009 .44200004 L .027999998 .44200004 C .011 .44200004 0 .44200004 0 .42300005 C 0 .411 .008999996 .411 .024999999 .411 L .105000007 .411 L .033 .124000009 C .031999999 .120000008 .027999998 .104 .027999998 .09 C .027999998 .040000004 .061000006 0 .113000009 0 C .214 0 .265 .14900002 .265 .15400002 Z "/>
</symbol>
<use xlink:href="#font_8_7" transform="matrix(27.673888,0,0,-27.673888,326.47969,182.51953)"/>
<use xlink:href="#font_8_8" transform="matrix(27.673888,0,0,-27.673888,348.36967,182.82395)"/>
<use xlink:href="#font_8_2" transform="matrix(27.673888,0,0,-27.673888,361.04429,182.82395)"/>
<use xlink:href="#font_8_3" transform="matrix(27.673888,0,0,-27.673888,375.35169,182.82395)"/>
<use xlink:href="#font_8_d" transform="matrix(27.673888,0,0,-27.673888,390.683,183.12836)"/>
<use xlink:href="#font_8_8" transform="matrix(27.673888,0,0,-27.673888,413.4863,182.82395)"/>
<use xlink:href="#font_8_9" transform="matrix(27.673888,0,0,-27.673888,426.88047,182.82395)"/>
<use xlink:href="#font_8_4" transform="matrix(27.673888,0,0,-27.673888,438.3374,182.82395)"/>
<use xlink:href="#font_8_5" transform="matrix(27.673888,0,0,-27.673888,450.7077,182.51953)"/>
<use xlink:href="#font_8_e" transform="matrix(27.673888,0,0,-27.673888,468.64036,182.82395)"/>
<use xlink:href="#font_8_a" transform="matrix(27.673888,0,0,-27.673888,476.94255,182.82395)"/>
<use xlink:href="#font_8_b" transform="matrix(27.673888,0,0,-27.673888,488.67625,182.82395)"/>
<use xlink:href="#font_9_a" transform="matrix(27.673888,0,0,-27.673888,499.63829,187.8606)"/>
<path transform="matrix(2.7777777,0,0,-2.7777777,87.5,193.86664)" stroke-width=".398" stroke-linecap="butt" stroke-miterlimit="10" stroke-linejoin="miter" fill="none" stroke="#000000" d="M 0 0 L 4.981 0 "/>
<path transform="matrix(2.7777777,0,0,-2.7777777,29.938887,210.59452)" stroke-width=".797" stroke-linecap="butt" stroke-miterlimit="10" stroke-linejoin="miter" fill="none" stroke="#000000" d="M 0 0 L 396.85 0 "/>
</g>
</g>
</svg>
