<?xml version="1.0" encoding="UTF-8" standalone="no"?>
<!DOCTYPE svg PUBLIC "-//W3C//DTD SVG 1.1//EN" "http://www.w3.org/Graphics/SVG/1.1/DTD/svg11.dtd">
<svg xmlns="http://www.w3.org/2000/svg" xmlns:xlink="http://www.w3.org/1999/xlink" version="1.1" width="1133.3333pt" height="219.44445pt" viewBox="0 0 1133.3333 219.44445">
<g enable-background="new">
<rect width="100%" height="100%" fill="white"/>
<path transform="matrix(2.7777777,0,0,-2.7777777,24.191666,5.9471976)" stroke-width=".797" stroke-linecap="butt" stroke-miterlimit="10" stroke-linejoin="miter" fill="none" stroke="#000000" d="M 0 0 L 396.85 0 "/>
<symbol id="font_0_3">
<path d="M .45100004 0 L .45100004 .056 L .29700003 .056 L .29700003 .62100008 C .29700003 .656 .29000003 .656 .24800003 .656 C .18600002 .606 .10400001 .592 .023999997 .592 L 0 .592 L 0 .536 L .023999997 .536 C .064 .536 .125 .54300007 .16700003 .55700007 L .16700003 .056 L .009000003 .056 L .009000003 0 C .058000007 .004 .178 .004 .23200003 .004 L .34000004 .003 C .37000004 .003 .42200006 .002 .45100004 0 Z "/>
</symbol>
<use xlink:href="#font_0_3" transform="matrix(19.371666,0,0,-19.371666,-.20743954,37.77234)"/>
<symbol id="font_1_9">
<path d="M .68200007 .49100004 C .68200007 .601 .58300009 .68600007 .41700004 .68600007 L 0 .68600007 L 0 .63900008 L .107999999 .63900008 L .107999999 .047000003 L 0 .047000003 L 0 0 C .038000008 .003 .136 .003 .179 .003 C .222 .003 .32000003 .003 .358 0 L .358 .047000003 L .25 .047000003 L .25 .30200003 L .42700003 .30200003 C .56600007 .30200003 .68200007 .374 .68200007 .49100004 M .52900007 .49100004 C .52900007 .42000003 .52900007 .34300003 .37800003 .34300003 L .24400002 .34300003 L .24400002 .63900008 L .379 .63900008 C .52900007 .63900008 .52900007 .563 .52900007 .49100004 Z "/>
</symbol>
<symbol id="font_1_a">
<path d="M .40500004 .36800004 C .40500004 .42100004 .351 .45000003 .29900003 .45000003 C .229 .45000003 .18900001 .4 .16600001 .337 L .16600001 .45000003 L 0 .44200004 L 0 .395 C .062000008 .395 .069000009 .395 .069000009 .356 L .069000009 .047000003 L 0 .047000003 L 0 0 L .126 .003 C .164 .003 .22800002 .003 .26400004 0 L .26400004 .047000003 L .17700002 .047000003 L .17700002 .22200002 C .17700002 .29200004 .202 .41400004 .30200003 .41400004 C .30200003 .41400004 .28300003 .397 .28300003 .36800004 C .28300003 .32700003 .31500004 .307 .344 .307 C .37300004 .307 .40500004 .328 .40500004 .36800004 Z "/>
</symbol>
<symbol id="font_1_8">
<path d="M .51000007 .224 C .51000007 .35800005 .418 .45900003 .255 .45900003 C .091000009 .45900003 0 .35700003 0 .224 C 0 .1 .088 0 .255 0 C .423 0 .51000007 .101 .51000007 .224 M .38200004 .23500002 C .38200004 .148 .38200004 .040000004 .255 .040000004 C .128 .040000004 .128 .148 .128 .23500002 C .128 .28000004 .128 .33100004 .145 .36500005 C .164 .40200005 .206 .42300005 .255 .42300005 C .29700003 .42300005 .33900003 .40700004 .361 .37200005 C .38200004 .33800004 .38200004 .28300003 .38200004 .23500002 Z "/>
</symbol>
<symbol id="font_1_1">
<path d="M .44 .123 C .44 .13700001 .426 .13700001 .416 .13700001 C .398 .13700001 .397 .135 .39200003 .122 C .366 .059000005 .31800003 .040000004 .26700003 .040000004 C .128 .040000004 .128 .187 .128 .23300001 C .128 .28900004 .128 .41900004 .25700004 .41900004 C .292 .41900004 .30900003 .41600005 .32200004 .41300003 C .30400003 .39700005 .302 .37600003 .302 .36700005 C .302 .323 .337 .30400003 .36400003 .30400003 C .39500005 .30400003 .42700006 .32500003 .42700006 .36700005 C .42700006 .45300005 .311 .45900003 .25300003 .45900003 C .074 .45900003 0 .34400005 0 .22800002 C 0 .095 .094 0 .24800001 0 C .41000004 0 .44 .116000007 .44 .123 Z "/>
</symbol>
<symbol id="font_1_3">
<path d="M .462 .123 C .462 .141 .44300003 .141 .43800003 .141 C .421 .141 .41900004 .136 .41300003 .120000008 C .39200003 .072 .335 .040000004 .27 .040000004 C .12900001 .040000004 .128 .17300001 .128 .224 L .43 .224 C .45200003 .224 .462 .224 .462 .25100003 C .462 .28200004 .45600004 .35500003 .40600003 .40500004 C .36900003 .44100005 .316 .45900003 .24700001 .45900003 C .087 .45900003 0 .35600005 0 .231 C 0 .097 .099999997 0 .261 0 C .41900004 0 .462 .106 .462 .123 M .367 .25700004 L .128 .25700004 C .13 .29600004 .131 .33800004 .15200001 .37100003 C .178 .41100005 .218 .42300005 .24700001 .42300005 C .36400003 .42300005 .36600004 .29200004 .367 .25700004 Z "/>
</symbol>
<symbol id="font_1_2">
<path d="M .563 .006 L .563 .053000004 C .50100007 .053000004 .49400003 .053000004 .49400003 .092 L .49400003 .7 L .31700004 .69200006 L .31700004 .64500007 C .379 .64500007 .38600005 .64500007 .38600005 .606 L .38600005 .41100005 C .33600004 .45000006 .28400005 .45600004 .251 .45600004 C .105000007 .45600004 0 .36800004 0 .22700002 C 0 .095 .09200001 0 .24000003 0 C .301 0 .34900005 .024 .38 .049000004 L .38 0 L .563 .006 M .38 .109000008 C .36700005 .091 .32600004 .036000004 .25 .036000004 C .128 .036000004 .128 .157 .128 .22700002 C .128 .27500005 .128 .32900004 .154 .36800004 C .18300002 .41000004 .23 .42000006 .26100005 .42000006 C .31800003 .42000006 .35800005 .38800005 .38 .35900004 L .38 .109000008 Z "/>
</symbol>
<symbol id="font_1_c">
<path d="M .57 .006 L .57 .053000004 C .508 .053000004 .501 .053000004 .501 .092 L .501 .45600004 L .31800003 .44800005 L .31800003 .40100003 C .38 .40100003 .38700003 .40100003 .38700003 .36200003 L .38700003 .171 C .38700003 .089 .33600004 .036000004 .263 .036000004 C .186 .036000004 .18300002 .061000006 .18300002 .115 L .18300002 .45600004 L 0 .44800005 L 0 .40100003 C .062000008 .40100003 .069000009 .40100003 .069000009 .36200003 L .069000009 .12900001 C .069000009 .022 .15 0 .249 0 C .27500005 0 .347 0 .393 .078 L .393 0 L .57 .006 Z "/>
</symbol>
<use xlink:href="#font_1_9" transform="matrix(27.673888,0,0,-27.673888,25.270947,37.77234)"/>
<use xlink:href="#font_1_a" transform="matrix(27.673888,0,0,-27.673888,46.967264,37.77234)"/>
<use xlink:href="#font_1_8" transform="matrix(27.673888,0,0,-27.673888,59.946325,37.93838)"/>
<use xlink:href="#font_1_1" transform="matrix(27.673888,0,0,-27.673888,76.91043,37.93838)"/>
<use xlink:href="#font_1_3" transform="matrix(27.673888,0,0,-27.673888,90.88575,37.93838)"/>
<use xlink:href="#font_1_2" transform="matrix(27.673888,0,0,-27.673888,105.635929,37.93838)"/>
<use xlink:href="#font_1_c" transform="matrix(27.673888,0,0,-27.673888,123.51324,37.93838)"/>
<use xlink:href="#font_1_a" transform="matrix(27.673888,0,0,-27.673888,140.97548,37.77234)"/>
<use xlink:href="#font_1_3" transform="matrix(27.673888,0,0,-27.673888,153.95453,37.93838)"/>
<symbol id="font_2_5">
<path d="M .486 .492 C .486 .59900006 .38700003 .694 .24900003 .694 L 0 .694 L 0 0 L .089 0 L .089 .289 L .25600005 .289 C .38 .289 .486 .38000003 .486 .492 M .40500004 .492 C .40500004 .41300003 .342 .347 .22700002 .347 L .08600001 .347 L .08600001 .638 L .22700002 .638 C .337 .638 .40500004 .577 .40500004 .492 Z "/>
</symbol>
<symbol id="font_2_7">
<path d="M .24500002 .388 L .24500002 .455 C .156 .45400004 .10100001 .40500004 .07000001 .35900004 L .07000001 .45000003 L 0 .45000003 L 0 0 L .075 0 L .075 .21400002 C .075 .314 .14700002 .386 .24500002 .388 Z "/>
</symbol>
<symbol id="font_2_4">
<path d="M .439 .23100002 C .439 .365 .33900003 .47200004 .22 .47200004 C .097 .47200004 0 .36200003 0 .23100002 C 0 .09900001 .102 0 .21900001 0 C .33900003 0 .439 .101 .439 .23100002 M .36100004 .24100001 C .36100004 .123 .293 .064 .21900001 .064 C .15 .064 .078 .120000008 .078 .24100001 C .078 .36200003 .15400002 .411 .21900001 .411 C .289 .411 .36100004 .35900004 .36100004 .24100001 Z "/>
</symbol>
<symbol id="font_2_6">
<path d="M .398 .417 C .398 .53700008 .33500005 .64900007 .23900001 .64900007 C .179 .64900007 .12100001 .628 .075 .589 L .075 .638 L 0 .638 L 0 0 L .07800001 0 L .07800001 .24000001 C .10900001 .21100001 .15300001 .183 .21300002 .183 C .31 .183 .398 .28100003 .398 .417 M .32 .417 C .32 .314 .24900003 .244 .17400001 .244 C .135 .244 .10800001 .264 .088 .291 C .07800001 .306 .07800001 .30800004 .07800001 .326 L .07800001 .527 C .10200001 .56200006 .141 .58500006 .184 .58500006 C .26 .58500006 .32 .50900009 .32 .417 Z "/>
</symbol>
<symbol id="font_2_1">
<path d="M .35500003 .011000001 L .35500003 .3 C .35500003 .40200005 .28200004 .47200004 .19000001 .47200004 C .125 .47200004 .08 .45600004 .033000005 .42900003 L .039 .36300005 C .091000009 .40000005 .141 .41300003 .19000001 .41300003 C .237 .41300003 .27700005 .37300004 .27700005 .29900003 L .27700005 .256 C .127 .254 0 .21200001 0 .124000009 C 0 .081 .026999999 0 .11400001 0 C .128 0 .22200002 .0020000004 .28000004 .047000003 L .28000004 .011000001 L .35500003 .011000001 M .27700005 .143 C .27700005 .124000009 .27700005 .09900001 .24300002 .080000009 C .214 .062000004 .176 .061 .165 .061 C .117 .061 .072 .08400001 .072 .126 C .072 .19600001 .23400001 .20300001 .27700005 .20500002 L .27700005 .143 Z "/>
</symbol>
<symbol id="font_2_3">
<path d="M .45700003 .59800007 L .44600005 .661 C .37600003 .661 .31800003 .642 .28800003 .629 C .26700003 .646 .23300001 .661 .19300002 .661 C .10700001 .661 .034 .58900007 .034 .49800004 C .034 .46100004 .047000003 .425 .067 .39900003 C .038 .35800005 .038 .319 .038 .314 C .038 .28800003 .047000003 .259 .06400001 .23800002 C .012000002 .20700002 0 .16100002 0 .13500002 C 0 .060000004 .09900001 0 .22100002 0 C .344 0 .44300003 .059000017 .44300003 .136 C .44300003 .27500005 .27600003 .27500005 .23700002 .27500005 L .149 .27500005 C .136 .27500005 .091000009 .27500005 .091000009 .328 C .091000009 .33900003 .095 .35500003 .10200001 .36400003 C .12300001 .34900005 .15600002 .33500005 .19300002 .33500005 C .28300003 .33500005 .35300002 .40900005 .35300002 .49800004 C .35300002 .546 .33100004 .583 .32000003 .59800007 L .32400004 .59700009 C .34600003 .59700009 .374 .601 .39800004 .601 C .41600005 .601 .45700003 .59800007 .45700003 .59800007 M .28300003 .49800004 C .28300003 .42000003 .236 .39200003 .19300002 .39200003 C .15600002 .39200003 .104 .41500003 .104 .49800004 C .104 .58100005 .15600002 .60400006 .19300002 .60400006 C .236 .60400006 .28300003 .57600006 .28300003 .49800004 M .37300004 .134 C .37300004 .09000001 .30400003 .05700001 .222 .05700001 C .14100002 .05700001 .07000001 .08800001 .07000001 .13500002 C .07000001 .13800001 .07000001 .20300001 .14800002 .20300001 L .238 .20300001 C .26000003 .20300001 .37300004 .20300001 .37300004 .134 Z "/>
</symbol>
<symbol id="font_2_8">
<path d="M .31300003 .038000004 L .29700003 .097 C .27100004 .076000008 .23900002 .064 .20700002 .064 C .17000002 .064 .15600002 .094000007 .15600002 .14700002 L .15600002 .397 L .29700003 .397 L .29700003 .45500005 L .15600002 .45500005 L .15600002 .582 L .087000008 .582 L .087000008 .45500005 L 0 .45500005 L 0 .397 L .08400001 .397 L .08400001 .13000001 C .08400001 .07000001 .098000008 0 .167 0 C .23700002 0 .28800003 .025000003 .31300003 .038000004 Z "/>
</symbol>
<symbol id="font_2_2">
<path d="M .37900005 .23000002 C .37900005 .26400004 .37800003 .33900003 .33900003 .39900003 C .298 .46100004 .23700002 .47200004 .20100002 .47200004 C .09 .47200004 0 .36600004 0 .23700002 C 0 .105000007 .096000019 0 .21600002 0 C .279 0 .33600004 .024 .37500004 .052 L .36900003 .117000009 C .30600003 .065000008 .24000001 .061 .21700001 .061 C .13700001 .061 .073 .13200002 .07000001 .23000002 L .37900005 .23000002 M .32200004 .28500004 L .075 .28500004 C .091000009 .36100004 .14400001 .411 .20100002 .411 C .25300003 .411 .30900003 .37700004 .32200004 .28500004 Z "/>
</symbol>
<use xlink:href="#font_2_5" transform="matrix(27.673888,0,0,-27.673888,179.51503,37.77234)"/>
<use xlink:href="#font_2_7" transform="matrix(27.673888,0,0,-27.673888,196.81122,37.77234)"/>
<use xlink:href="#font_2_4" transform="matrix(27.673888,0,0,-27.673888,204.83666,38.07675)"/>
<use xlink:href="#font_2_6" transform="matrix(27.673888,0,0,-27.673888,220.11261,43.141077)"/>
<use xlink:href="#font_2_1" transform="matrix(27.673888,0,0,-27.673888,233.64514,38.07675)"/>
<use xlink:href="#font_2_3" transform="matrix(27.673888,0,0,-27.673888,246.23676,43.47316)"/>
<use xlink:href="#font_2_1" transform="matrix(27.673888,0,0,-27.673888,260.7932,38.07675)"/>
<use xlink:href="#font_2_8" transform="matrix(27.673888,0,0,-27.673888,273.13578,38.07675)"/>
<use xlink:href="#font_2_2" transform="matrix(27.673888,0,0,-27.673888,283.56883,38.07675)"/>
<symbol id="font_3_7">
<path d="M .23200003 .00999999 C .23200003 .012999982 .23200003 .014999986 .215 .03199999 C .09 .15799999 .058 .347 .058 .5 C .058 .674 .096 .84800007 .21900001 .97300007 C .23200003 .985 .23200003 .98700007 .23200003 .99 C .23200003 .99700006 .22800002 1 .222 1 C .21200001 1 .12200001 .93200007 .06299999 .805 C .012000002 .69500008 0 .584 0 .5 C 0 .422 .011 .301 .066 .188 C .126 .065 .21200001 0 .222 0 C .22800002 0 .23200003 .0029999912 .23200003 .00999999 Z "/>
</symbol>
<use xlink:href="#font_3_7" transform="matrix(27.673888,0,0,-27.673888,297.59806,44.69081)"/>
<symbol id="font_4_4">
<path d="M .384 .11800001 C .384 .124000009 .37800003 .13100001 .372 .13100001 C .367 .13100001 .365 .12900001 .35900004 .12100001 C .28 .022000002 .171 .022000002 .15900001 .022000002 C .081 .022000002 .072000008 .106000009 .072000008 .13800001 C .072000008 .15000002 .073 .18100001 .088 .24200002 L .141 .24200002 C .17 .24200002 .24400002 .24400002 .294 .26500003 C .36400003 .29500003 .36900003 .35400004 .36900003 .36800004 C .36900003 .41200004 .331 .45300005 .26200003 .45300005 C .15100001 .45300005 0 .35600005 0 .18100001 C 0 .079 .059 0 .157 0 C .3 0 .384 .106000009 .384 .11800001 M .33600004 .36800004 C .33600004 .26400004 .17600002 .26400004 .135 .26400004 L .094 .26400004 C .133 .41600005 .236 .43100003 .26200003 .43100003 C .30900003 .43100003 .33600004 .40200005 .33600004 .36800004 Z "/>
</symbol>
<symbol id="font_4_1">
<path d="M .117000009 .194 C .117000009 .26 .092 .29900003 .05300001 .29900003 C .020000004 .29900003 0 .274 0 .246 C 0 .21900001 .020000004 .193 .05300001 .193 C .065000008 .193 .078 .197 .08800001 .206 C .091 .208 .093 .209 .093 .209 C .093 .209 .095000009 .208 .095000009 .194 C .095000009 .12 .06000001 .060000004 .027000003 .026999996 C .016000003 .016000003 .016000003 .013999999 .016000003 .0109999929 C .016000003 .003999993 .021000006 0 .026 0 C .037 0 .117000009 .077 .117000009 .194 Z "/>
</symbol>
<symbol id="font_4_5">
<path d="M .49900005 .8410001 C .49900005 .8870001 .45300005 .9100001 .41200004 .9100001 C .37800003 .9100001 .31500004 .8920001 .28500004 .793 C .279 .7720001 .27600003 .7620001 .252 .63600006 L .18300002 .63600006 C .164 .63600006 .15300001 .63600006 .15300001 .61700007 C .15300001 .605 .162 .605 .18100001 .605 L .24700001 .605 L .172 .21000001 C .15400002 .113000009 .13700001 .022 .08500001 .022 C .081 .022 .056 .022 .037 .040000008 C .083000008 .043000014 .09200001 .07900001 .09200001 .094000007 C .09200001 .117000009 .074 .12900001 .055 .12900001 C .029 .12900001 0 .10700001 0 .069000009 C 0 .024000004 .044 0 .08500001 0 C .14 0 .18 .059 .19800002 .09700001 C .23000002 .16000001 .25300003 .28100003 .254 .28800003 L .314 .605 L .4 .605 C .42000003 .605 .43 .605 .43 .625 C .43 .63600006 .42000003 .63600006 .40300004 .63600006 L .32000003 .63600006 C .331 .694 .33 .69200006 .34100003 .75 C .34500004 .771 .35900004 .842 .365 .8540001 C .374 .873 .39100004 .888 .41200004 .888 C .416 .888 .44200004 .888 .461 .87 C .41700004 .86600008 .407 .8310001 .407 .816 C .407 .793 .425 .781 .444 .781 C .47 .781 .49900005 .8030001 .49900005 .8410001 Z "/>
</symbol>
<use xlink:href="#font_4_4" transform="matrix(27.673888,0,0,-27.673888,306.89247,38.07675)"/>
<use xlink:href="#font_4_1" transform="matrix(27.673888,0,0,-27.673888,320.8954,43.1134)"/>
<use xlink:href="#font_4_5" transform="matrix(27.673888,0,0,-27.673888,332.2971,43.445489)"/>
<symbol id="font_3_8">
<path d="M .232 .5 C .232 .578 .22100002 .699 .16600001 .81200006 C .106 .93500009 .020000004 1 .009999998 1 C .0040000008 1 0 .99600008 0 .99 C 0 .98700007 0 .985 .019000002 .967 C .117000009 .86800006 .174 .709 .174 .5 C .174 .329 .137 .153 .012999997 .026999996 C 0 .014999986 0 .012999982 0 .00999999 C 0 .003999993 .0040000008 0 .009999998 0 C .020000004 0 .11000001 .06799999 .169 .195 C .22 .305 .232 .416 .232 .5 Z "/>
</symbol>
<use xlink:href="#font_3_8" transform="matrix(27.673888,0,0,-27.673888,348.91075,44.69081)"/>
<path transform="matrix(2.7777777,0,0,-2.7777777,38.580556,203.10839)" stroke-width=".398" stroke-linecap="butt" stroke-miterlimit="10" stroke-linejoin="miter" fill="none" stroke="#000000" d="M 0 0 L 0 55.636 "/>
<symbol id="font_0_5">
<path d="M .51 .22800002 L .44700004 .22800002 C .445 .216 .436 .14500001 .41800005 .141 C .397 .13700001 .337 .13700001 .314 .13700001 L .177 .13700001 C .23200001 .178 .288 .21900001 .34600003 .256 C .42700006 .30800004 .51 .36100004 .51 .46100004 C .51 .58100005 .397 .656 .23800002 .656 C .102 .656 0 .60300007 0 .508 C 0 .45000003 .047 .42900003 .07700001 .42900003 C .113000009 .42900003 .155 .45400004 .155 .507 C .155 .555 .118 .57500007 .11500001 .57600006 C .15100001 .59900006 .19700001 .6 .209 .6 C .29400004 .6 .361 .546 .361 .46 C .361 .38300003 .30900003 .319 .251 .268 L .012999997 .057000005 C .001000002 .045 0 .044000005 0 .024 L 0 0 L .476 0 L .51 .22800002 Z "/>
</symbol>
<use xlink:href="#font_0_5" transform="matrix(19.371666,0,0,-19.371666,.23949933,73.747318)"/>
<symbol id="font_5_6">
<path d="M .246 0 L .246 .047000003 L .177 .047000003 L .177 .694 L 0 .68600007 L 0 .63900008 C .062000004 .63900008 .069000009 .63900008 .069000009 .6 L .069000009 .047000003 L 0 .047000003 L 0 0 L .122999999 .003 L .246 0 Z "/>
</symbol>
<symbol id="font_5_3">
<path d="M .462 .123 C .462 .141 .44300003 .141 .43800003 .141 C .421 .141 .41900004 .136 .41300003 .120000008 C .39200003 .072 .335 .040000004 .27 .040000004 C .12900001 .040000004 .128 .17300001 .128 .224 L .43 .224 C .45200003 .224 .462 .224 .462 .25100003 C .462 .28200004 .45600004 .35500003 .40600003 .40500004 C .36900003 .44100005 .316 .45900003 .24700001 .45900003 C .087 .45900003 0 .35600005 0 .231 C 0 .097 .099999997 0 .261 0 C .41900004 0 .462 .106 .462 .123 M .367 .25700004 L .128 .25700004 C .13 .29600004 .131 .33800004 .15200001 .37100003 C .178 .41100005 .218 .42300005 .24700001 .42300005 C .36400003 .42300005 .36600004 .29200004 .367 .25700004 Z "/>
</symbol>
<symbol id="font_5_b">
<path d="M .36100004 .13000001 L .36100004 .183 L .314 .183 L .314 .132 C .314 .064 .282 .040000004 .254 .040000004 C .19600001 .040000004 .19600001 .104 .19600001 .127 L .19600001 .40300004 L .342 .40300004 L .342 .45000006 L .19600001 .45000006 L .19600001 .64100006 L .149 .64100006 C .14800002 .541 .09900001 .44200004 0 .43900005 L 0 .40300004 L .082 .40300004 L .082 .12900001 C .082 .022 .16900002 0 .24000001 0 C .316 0 .36100004 .057000005 .36100004 .13000001 Z "/>
</symbol>
<use xlink:href="#font_5_6" transform="matrix(27.673888,0,0,-27.673888,68.10899,73.747318)"/>
<use xlink:href="#font_5_3" transform="matrix(27.673888,0,0,-27.673888,76.54954,73.91336)"/>
<use xlink:href="#font_5_b" transform="matrix(27.673888,0,0,-27.673888,90.82926,73.91336)"/>
<use xlink:href="#font_4_5" transform="matrix(27.673888,0,0,-27.673888,113.3028,79.42046)"/>
<symbol id="font_6_1">
<path d="M .25100003 .463 C .25100003 .49400003 .224 .518 .192 .518 C .15200001 .518 .14200002 .485 .13800001 .472 L .0050000029 .039000006 L 0 .022 C 0 .010000002 .031000004 0 .039000006 0 C .047000007 0 .050000006 .0050000029 .054000006 .015000001 L .243 .432 C .24700001 .442 .25100003 .449 .25100003 .463 Z "/>
</symbol>
<use xlink:href="#font_6_1" transform="matrix(19.371666,0,0,-19.371666,129.29373,62.91145)"/>
<symbol id="font_3_3">
<path d="M .665 .214 C .665 .23400001 .646 .23400001 .632 .23400001 L .033 .23400001 C .019000002 .23400001 0 .23400001 0 .214 C 0 .19400002 .019000002 .19400002 .034 .19400002 L .63100007 .19400002 C .646 .19400002 .665 .19400002 .665 .214 M .665 .02000001 C .665 .040000008 .646 .040000008 .63100007 .040000008 L .034 .040000008 C .019000002 .040000008 0 .040000008 0 .02000001 C 0 0 .019000002 0 .033 0 L .632 0 C .646 0 .665 0 .665 .02000001 Z "/>
</symbol>
<use xlink:href="#font_3_3" transform="matrix(27.673888,0,0,-27.673888,145.36362,70.06669)"/>
<use xlink:href="#font_4_5" transform="matrix(27.673888,0,0,-27.673888,174.49446,79.42046)"/>
<symbol id="font_7_2">
<path d="M .544 .033 L .544 .565 C .544 .59400007 .54 .59800007 .51100006 .59800007 L .033 .59800007 C .0040000008 .59800007 0 .59400007 0 .565 L 0 .034 C 0 .020000002 0 0 .019999996 0 C .04 0 .04 .019000002 .04 .033 L .04 .558 L .504 .558 L .504 .034 C .504 .020000002 .504 0 .52400007 0 C .544 0 .544 .019000002 .544 .033 Z "/>
</symbol>
<use xlink:href="#font_7_2" transform="matrix(27.673888,0,0,-27.673888,197.39365,73.747318)"/>
<symbol id="font_4_3">
<path d="M .56200006 .693 C .56200006 .702 .55600008 .70500007 .54800006 .70500007 C .52300009 .70500007 .46200005 .702 .437 .702 L .29000003 .70500007 C .28100003 .70500007 .269 .70500007 .269 .68500009 C .269 .674 .277 .674 .303 .674 C .326 .674 .336 .674 .361 .67200008 C .38500003 .669 .39200003 .66600009 .39200003 .65200009 C .39200003 .646 .39000003 .63900008 .388 .63100007 L .273 .172 C .24900002 .075 .181 .022000002 .12900001 .022000002 C .10300001 .022000002 .050000006 .032 .034 .08400001 C .037 .083000008 .046000005 .083000008 .046000005 .083000008 C .085 .083000008 .11100001 .117000009 .11100001 .147 C .11100001 .179 .084 .18900001 .06700001 .18900001 C .049000004 .18900001 0 .177 0 .109000008 C 0 .047000003 .053000004 0 .132 0 C .224 0 .328 .06600001 .35300002 .165 L .47 .632 C .47800002 .665 .48 .674 .535 .674 C .55100008 .674 .56200006 .674 .56200006 .693 Z "/>
</symbol>
<symbol id="font_4_9">
<path d="M .51400008 .15400002 C .51400008 .16400002 .50500008 .16400002 .50200006 .16400002 C .492 .16400002 .49100004 .16000001 .488 .14600002 C .474 .09 .455 .022000002 .41300003 .022000002 C .39200003 .022000002 .382 .035 .382 .068 C .382 .09 .394 .13700001 .402 .17200002 L .43 .28000004 C .433 .29500003 .44300003 .33300004 .447 .34800003 C .45200003 .37100003 .462 .40900005 .462 .41500003 C .462 .43300004 .448 .44200004 .433 .44200004 C .428 .44200004 .402 .441 .394 .40700004 L .319 .106000009 C .318 .102000009 .278 .022000002 .20500002 .022000002 C .15300001 .022000002 .143 .067 .143 .104 C .143 .16000001 .171 .23900002 .19700001 .30800004 C .209 .33800004 .21400002 .35200004 .21400002 .37100003 C .21400002 .41600005 .18200001 .45300005 .13200002 .45300005 C .037 .45300005 0 .30800004 0 .29900003 C 0 .28900004 .012 .28900004 .012 .28900004 C .022000002 .28900004 .023 .291 .028000003 .307 C .053000004 .39400003 .091000009 .43100003 .12900001 .43100003 C .13800001 .43100003 .15400002 .43000005 .15400002 .39800004 C .15400002 .374 .143 .34500004 .13700001 .33 C .10000001 .23100002 .079 .16900002 .079 .120000008 C .079 .025000003 .148 0 .202 0 C .268 0 .304 .045 .321 .067 C .33200003 .026 .367 0 .41 0 C .44500003 0 .468 .023000002 .484 .055000005 C .50100007 .091000009 .51400008 .15400002 .51400008 .15400002 Z "/>
</symbol>
<symbol id="font_4_6">
<path d="M .81900009 .15400002 C .81900009 .16400002 .81000009 .16400002 .80700007 .16400002 C .79700008 .16400002 .79700008 .16100002 .79200008 .14600002 C .77700009 .093 .74500009 .022000002 .69000008 .022000002 C .67300006 .022000002 .66600009 .032 .66600009 .055000005 C .66600009 .080000009 .6750001 .104 .6840001 .126 C .70300009 .17800002 .74500009 .28900004 .74500009 .34600003 C .74500009 .411 .70500007 .45300005 .63000008 .45300005 C .55500009 .45300005 .50400009 .40900005 .467 .35600005 C .46600003 .36900003 .463 .40300004 .435 .42700003 C .41 .448 .378 .45300005 .35300002 .45300005 C .263 .45300005 .21400002 .38900004 .19700001 .36600004 C .19200002 .42300005 .15 .45300005 .105000007 .45300005 C .059000009 .45300005 .040000008 .41400004 .031000002 .39600004 C .013000002 .36100004 0 .30200003 0 .29900003 C 0 .28900004 .012 .28900004 .012 .28900004 C .022000002 .28900004 .023 .29000003 .029000001 .31200005 C .046000005 .38300003 .06600001 .43100003 .10200001 .43100003 C .118 .43100003 .133 .42300005 .133 .38500003 C .133 .36400003 .13000001 .35300002 .11700001 .30100004 L .059000009 .07000001 C .056 .055000005 .050000006 .032 .050000006 .027000003 C .050000006 .009000001 .064 0 .079 0 C .091000009 0 .10900001 .008000001 .11600001 .028 C .11700001 .030000002 .12900001 .077 .135 .102000009 L .157 .19200002 C .163 .21400002 .16900002 .23600002 .17400001 .259 L .187 .30900003 C .202 .34000004 .255 .43100003 .35 .43100003 C .395 .43100003 .404 .39400003 .404 .36100004 C .404 .33600004 .397 .30800004 .389 .27800004 L .361 .16200002 C .351 .12500002 .35 .119 .341 .086 C .337 .06600001 .328 .032 .328 .027000003 C .328 .009000001 .342 0 .357 0 C .388 0 .394 .025000003 .402 .057000005 L .462 .298 C .465 .31100003 .51800009 .43100003 .62700006 .43100003 C .6700001 .43100003 .68100008 .397 .68100008 .36100004 C .68100008 .30400003 .63900008 .19000001 .619 .13700001 C .6100001 .113000009 .60600009 .102000009 .60600009 .082 C .60600009 .035 .64100006 0 .688 0 C .78200009 0 .81900009 .14600002 .81900009 .15400002 Z "/>
</symbol>
<symbol id="font_4_8">
<path d="M .522 .476 C .522 .57000008 .46500004 .63600006 .38900004 .63600006 C .33900003 .63600006 .291 .6 .25800003 .561 C .24800001 .615 .20500002 .63600006 .16800002 .63600006 C .12200001 .63600006 .103 .597 .094000007 .579 C .076000008 .545 .063 .485 .063 .48200003 C .063 .47200004 .075 .47200004 .075 .47200004 C .08500001 .47200004 .086 .47300003 .09200001 .49500004 C .10900001 .566 .12900001 .614 .165 .614 C .18200001 .614 .19600001 .60600009 .19600001 .568 C .19600001 .545 .19300002 .53400006 .18900001 .517 L .07700001 .072 C .069000009 .038000004 .067 .031000004 .023000002 .031000004 C .011 .031000004 0 .031000004 0 .0119999949 C 0 .003999993 .005000001 0 .013 0 C .040000004 0 .069000009 .0029999912 .097 .0029999912 C .13000001 .0029999912 .164 0 .19600001 0 C .20100002 0 .21400002 0 .21400002 .019999996 C .21400002 .031000004 .20400001 .031000004 .19000001 .031000004 C .14 .031000004 .14 .038000004 .14 .047000007 C .14 .059 .18200001 .222 .18900001 .24700001 C .202 .21800001 .23000002 .183 .28100003 .183 C .397 .183 .522 .329 .522 .476 M .39900003 .30800004 C .365 .238 .31700004 .20500002 .28 .20500002 C .21400002 .20500002 .20100002 .28800003 .20100002 .294 C .20100002 .294 .20100002 .298 .20400001 .31 L .25300003 .50600007 C .26000003 .533 .28700004 .561 .305 .57600006 C .34000004 .607 .36900003 .614 .386 .614 C .42600004 .614 .45000003 .579 .45000003 .52 C .45000003 .46100004 .41700004 .34600003 .39900003 .30800004 Z "/>
</symbol>
<symbol id="font_4_2">
<path d="M .69000008 .48000003 L .71000006 .65300008 C .71300008 .68 .70800009 .68 .683 .68 L .193 .68 C .17300001 .68 .163 .68 .163 .66 C .163 .64900007 .172 .64900007 .19100002 .64900007 C .228 .64900007 .25599999 .64900007 .25599999 .63100007 C .25599999 .62700006 .25599999 .625 .251 .60700008 L .119 .078 C .109 .039 .10700001 .031000002 .027999998 .031000002 C .011 .031000002 0 .031000002 0 .012 C 0 0 .011999998 0 .015000001 0 L .147 .003 L .296 0 C .305 0 .31700004 0 .31700004 .019000002 C .31700004 .027 .311 .030000002 .311 .030000002 C .30800004 .031000002 .306 .031000002 .283 .031000002 C .26100005 .031000002 .25599999 .031000002 .23100002 .033 C .202 .036000004 .19900002 .040000004 .19900002 .053000004 C .19900002 .053000004 .19900002 .061000006 .20300001 .076000008 L .265 .32500003 L .362 .32500003 C .43700005 .32500003 .445 .30900003 .445 .28 C .445 .273 .445 .261 .43800003 .231 C .43600006 .22600001 .435 .22000002 .435 .22000002 C .435 .21200001 .44100005 .208 .44700004 .208 C .45700003 .208 .45700003 .21100001 .462 .22900002 L .517 .446 C .52000007 .45700003 .52000007 .45900003 .52000007 .462 C .52000007 .462 .51800009 .47300003 .508 .47300003 C .49800004 .47300003 .49700005 .46800003 .49300004 .45200003 C .47200007 .374 .449 .356 .36400003 .356 L .273 .356 L .337 .61 C .34600003 .64500007 .347 .64900007 .39100004 .64900007 L .52300009 .64900007 C .646 .64900007 .669 .61600008 .669 .53900006 C .669 .51600006 .669 .512 .66600009 .485 C .66400006 .47200004 .66400006 .47000004 .66400006 .467 C .66400006 .462 .66700008 .455 .67600008 .455 C .68700006 .455 .688 .46100004 .69000008 .48000003 Z "/>
</symbol>
<symbol id="font_4_7">
<path d="M .54200008 .15400002 C .54200008 .16400002 .53300008 .16400002 .53000006 .16400002 C .52000007 .16400002 .52000007 .16100002 .51500007 .14600002 C .49500004 .078 .462 .022000002 .41300003 .022000002 C .396 .022000002 .389 .032 .389 .055000005 C .389 .080000009 .398 .104 .407 .126 C .426 .17900002 .468 .28900004 .468 .34600003 C .468 .41300003 .425 .45300005 .35300002 .45300005 C .263 .45300005 .21400002 .38900004 .19700001 .36600004 C .19200002 .42200003 .15100001 .45300005 .105000007 .45300005 C .059000009 .45300005 .040000008 .41400004 .030000003 .39600004 C .014 .36200003 0 .30300004 0 .29900003 C 0 .28900004 .012 .28900004 .012 .28900004 C .022000002 .28900004 .023 .29000003 .029000001 .31200005 C .046000005 .38300003 .06600001 .43100003 .10200001 .43100003 C .12200001 .43100003 .133 .418 .133 .38500003 C .133 .36400003 .13000001 .35300002 .11700001 .30100004 L .059000009 .07000001 C .056 .055000005 .050000006 .032 .050000006 .027000003 C .050000006 .009000001 .064 0 .079 0 C .091000009 0 .10900001 .008000001 .11600001 .028 C .11700001 .030000002 .12900001 .077 .135 .102000009 L .157 .19200002 C .163 .21400002 .16900002 .23600002 .17400001 .259 L .187 .30900003 C .202 .34000004 .255 .43100003 .35 .43100003 C .395 .43100003 .404 .39400003 .404 .36100004 C .404 .29900003 .355 .17100002 .33900003 .128 C .33 .105000007 .329 .093 .329 .082 C .329 .035 .364 0 .411 0 C .50500008 0 .54200008 .14600002 .54200008 .15400002 Z "/>
</symbol>
<use xlink:href="#font_4_3" transform="matrix(27.673888,0,0,-27.673888,222.26758,74.35614)"/>
<use xlink:href="#font_4_9" transform="matrix(27.673888,0,0,-27.673888,239.12096,74.05173)"/>
<use xlink:href="#font_4_6" transform="matrix(27.673888,0,0,-27.673888,254.9781,74.05173)"/>
<use xlink:href="#font_4_8" transform="matrix(27.673888,0,0,-27.673888,277.58769,79.11605)"/>
<use xlink:href="#font_4_2" transform="matrix(27.673888,0,0,-27.673888,293.4448,73.747318)"/>
<use xlink:href="#font_4_7" transform="matrix(27.673888,0,0,-27.673888,314.83668,74.05173)"/>
<use xlink:href="#font_3_7" transform="matrix(27.673888,0,0,-27.673888,333.36466,80.66579)"/>
<use xlink:href="#font_4_4" transform="matrix(27.673888,0,0,-27.673888,342.65907,74.05173)"/>
<use xlink:href="#font_3_8" transform="matrix(27.673888,0,0,-27.673888,355.84965,80.66579)"/>
<symbol id="font_8_b">
<path d="M .106 .57100006 C .106 .6 .08200001 .624 .05300001 .624 C .024000004 .624 0 .6 0 .57100006 C 0 .542 .024000004 .518 .05300001 .518 C .08200001 .518 .106 .542 .106 .57100006 M .109000008 .19600001 C .109000008 .22500001 .107 .29900003 .05300001 .29900003 C .018 .29900003 0 .272 0 .246 C 0 .22 .017000005 .193 .05300001 .193 C .058000007 .193 .060999998 .194 .060999998 .194 C .06800001 .19500001 .079 .197 .087000008 .20400001 C .087000008 .176 .087000008 .098 .023000002 .023999989 C .016000003 .016000003 .016000003 .013999999 .016000003 .0109999929 C .016000003 .003999993 .021000006 0 .026 0 C .037 0 .109000008 .08 .109000008 .19600001 Z "/>
</symbol>
<use xlink:href="#font_8_b" transform="matrix(27.673888,0,0,-27.673888,367.41603,79.08837)"/>
<symbol id="font_0_4">
<path d="M .53200009 .193 C .53200009 .27 .471 .34 .35700003 .363 C .42900003 .39000003 .49600003 .442 .49600003 .526 C .49600003 .60400006 .416 .66800007 .256 .66800007 C .12 .66800007 .036 .6010001 .036 .51800009 C .036 .46800003 .072000008 .441 .11100001 .441 C .16100002 .441 .187 .47800002 .187 .51600006 C .187 .56700006 .14700002 .58500006 .137 .58800008 C .178 .61800006 .231 .62200006 .25100003 .62200006 C .349 .62200006 .349 .55700007 .349 .52900007 C .349 .483 .329 .391 .229 .386 C .204 .38500003 .17900002 .384 .17300001 .382 C .16 .37800003 .16 .366 .16 .36 C .16 .337 .17300001 .337 .192 .337 L .245 .337 C .36400003 .337 .36900003 .24700001 .36900003 .194 C .36900003 .152 .36900003 .051 .24900002 .051 C .222 .051 .15900001 .056 .116000007 .083000008 C .137 .09200001 .16300002 .11500001 .16300002 .158 C .16300002 .204 .13 .23900001 .08200001 .23900001 C .031999999 .23900001 0 .204 0 .157 C 0 .055 .11100001 0 .253 0 C .46200005 0 .53200009 .109000008 .53200009 .193 Z "/>
</symbol>
<use xlink:href="#font_0_4" transform="matrix(19.371666,0,0,-19.371666,.026410938,109.95756)"/>
<symbol id="font_1_d">
<path d="M .23900001 0 L .23900001 .047000003 L .177 .047000003 L .177 .45000003 L .0029999987 .44200004 L .0029999987 .395 C .062000004 .395 .069000009 .395 .069000009 .356 L .069000009 .047000003 L 0 .047000003 L 0 0 L .12200001 .003 L .23900001 0 M .191 .60700008 C .191 .65000006 .156 .68500009 .113000009 .68500009 C .07000001 .68500009 .035 .65000006 .035 .60700008 C .035 .564 .07000001 .52900007 .113000009 .52900007 C .156 .52900007 .191 .564 .191 .60700008 Z "/>
</symbol>
<symbol id="font_1_4">
<path d="M .395 .61300006 C .395 .65500006 .35900004 .70000007 .28100003 .70000007 C .183 .70000007 .075 .65800008 .075 .545 L .075 .44400005 L 0 .44400005 L 0 .397 L .075 .397 L .075 .047000003 L .0059999974 .047000003 L .0059999974 0 L .132 .003 C .17000002 .003 .23400003 .003 .27 0 L .27 .047000003 L .183 .047000003 L .183 .397 L .298 .397 L .298 .44400005 L .17700002 .44400005 L .17700002 .545 C .17700002 .65500006 .25300003 .66400006 .27800004 .66400006 C .28300003 .66400006 .28800003 .66400006 .29500003 .66200008 C .28000004 .651 .272 .632 .272 .61300006 C .272 .57000008 .307 .551 .33300004 .551 C .36300005 .551 .395 .572 .395 .61300006 Z "/>
</symbol>
<use xlink:href="#font_1_d" transform="matrix(27.673888,0,0,-27.673888,68.10899,109.7251)"/>
<use xlink:href="#font_1_4" transform="matrix(27.673888,0,0,-27.673888,76.82627,109.7251)"/>
<use xlink:href="#font_4_5" transform="matrix(27.673888,0,0,-27.673888,99.2028,115.39825)"/>
<use xlink:href="#font_6_1" transform="matrix(19.371666,0,0,-19.371666,115.193698,98.88631)"/>
<symbol id="font_7_1">
<path d="M .499 .91200008 C .499 .919 .49300004 .93200007 .47900004 .93200007 C .46900005 .93200007 .46300007 .92600008 .45700003 .91400006 L .0069999995 .038000004 C .0009999871 .025999994 0 .024000004 0 .019999996 C 0 .012999997 .0059999974 0 .019999996 0 C .030000002 0 .036 .0059999974 .041999997 .017999992 L .49200005 .89400008 C .49800004 .9060001 .499 .90800008 .499 .91200008 Z "/>
</symbol>
<use xlink:href="#font_7_1" transform="matrix(27.673888,0,0,-27.673888,133.56053,115.70266)"/>
<use xlink:href="#font_3_3" transform="matrix(27.673888,0,0,-27.673888,131.26361,106.04447)"/>
<use xlink:href="#font_4_3" transform="matrix(27.673888,0,0,-27.673888,160.89258,110.33392)"/>
<use xlink:href="#font_4_9" transform="matrix(27.673888,0,0,-27.673888,177.74596,110.02951)"/>
<use xlink:href="#font_4_6" transform="matrix(27.673888,0,0,-27.673888,193.6031,110.02951)"/>
<use xlink:href="#font_4_8" transform="matrix(27.673888,0,0,-27.673888,216.21268,115.093837)"/>
<use xlink:href="#font_4_2" transform="matrix(27.673888,0,0,-27.673888,232.0698,109.7251)"/>
<use xlink:href="#font_4_7" transform="matrix(27.673888,0,0,-27.673888,253.46166,110.02951)"/>
<use xlink:href="#font_3_7" transform="matrix(27.673888,0,0,-27.673888,271.98689,116.64357)"/>
<use xlink:href="#font_4_4" transform="matrix(27.673888,0,0,-27.673888,281.28407,110.02951)"/>
<use xlink:href="#font_3_8" transform="matrix(27.673888,0,0,-27.673888,294.47465,116.64357)"/>
<symbol id="font_1_b">
<path d="M .36100004 .13000001 L .36100004 .183 L .314 .183 L .314 .132 C .314 .064 .282 .040000004 .254 .040000004 C .19600001 .040000004 .19600001 .104 .19600001 .127 L .19600001 .40300004 L .342 .40300004 L .342 .45000006 L .19600001 .45000006 L .19600001 .64100006 L .149 .64100006 C .14800002 .541 .09900001 .44200004 0 .43900005 L 0 .40300004 L .082 .40300004 L .082 .12900001 C .082 .022 .16900002 0 .24000001 0 C .316 0 .36100004 .057000005 .36100004 .13000001 Z "/>
</symbol>
<symbol id="font_1_5">
<path d="M .57 0 L .57 .047000003 L .501 .047000003 L .501 .30600003 C .501 .411 .44700004 .45000003 .347 .45000003 C .251 .45000003 .2 .39200003 .178 .354 L .17700002 .354 L .17700002 .694 L 0 .68600007 L 0 .63900008 C .062000008 .63900008 .069000009 .63900008 .069000009 .6 L .069000009 .047000003 L 0 .047000003 L 0 0 L .126 .003 L .25200004 0 L .25200004 .047000003 L .18300002 .047000003 L .18300002 .256 C .18300002 .365 .269 .41400004 .33200003 .41400004 C .366 .41400004 .38700003 .393 .38700003 .317 L .38700003 .047000003 L .31800003 .047000003 L .31800003 0 L .444 .003 L .57 0 Z "/>
</symbol>
<symbol id="font_1_7">
<path d="M .57 0 L .57 .047000003 L .501 .047000003 L .501 .30600003 C .501 .411 .44700004 .45000003 .347 .45000003 C .251 .45000003 .19800002 .393 .172 .342 L .172 .45000003 L 0 .44200004 L 0 .395 C .062000008 .395 .069000009 .395 .069000009 .356 L .069000009 .047000003 L 0 .047000003 L 0 0 L .126 .003 L .25200004 0 L .25200004 .047000003 L .18300002 .047000003 L .18300002 .256 C .18300002 .365 .269 .41400004 .33200003 .41400004 C .366 .41400004 .38700003 .393 .38700003 .317 L .38700003 .047000003 L .31800003 .047000003 L .31800003 0 L .444 .003 L .57 0 Z "/>
</symbol>
<use xlink:href="#font_1_b" transform="matrix(27.673888,0,0,-27.673888,313.46446,109.89114)"/>
<use xlink:href="#font_1_5" transform="matrix(27.673888,0,0,-27.673888,326.49888,109.7251)"/>
<use xlink:href="#font_1_3" transform="matrix(27.673888,0,0,-27.673888,343.8227,109.89114)"/>
<use xlink:href="#font_1_7" transform="matrix(27.673888,0,0,-27.673888,358.76664,109.7251)"/>
<path transform="matrix(2.7777777,0,0,-2.7777777,81.200008,193.57503)" stroke-width=".398" stroke-linecap="butt" stroke-miterlimit="10" stroke-linejoin="miter" fill="none" stroke="#000000" d="M 0 0 L 0 26.301 "/>
<symbol id="font_0_2">
<path d="M .566 0 L .566 .056 L .45700003 .056 L .45700003 .15400002 L .566 .15400002 L .566 .21000001 L .45700003 .21000001 L .45700003 .62700006 C .45700003 .657 .45200003 .66200008 .42200003 .66200008 L .40700004 .66200008 C .38800005 .66200008 .38000003 .66200008 .367 .647 L 0 .21000001 L 0 .15400002 L .32000003 .15400002 L .32000003 .056 L .19600001 .056 L .19600001 0 C .24500002 .004 .33500005 .004 .38700003 .004 C .40900005 .004 .541 .002 .566 0 M .33300004 .21000001 L .069000009 .21000001 L .33300004 .52400007 L .33300004 .21000001 Z "/>
</symbol>
<use xlink:href="#font_0_2" transform="matrix(19.371666,0,0,-19.371666,.80543008,145.70008)"/>
<use xlink:href="#font_4_3" transform="matrix(27.673888,0,0,-27.673888,111.39261,146.3089)"/>
<use xlink:href="#font_4_9" transform="matrix(27.673888,0,0,-27.673888,128.24602,146.00449)"/>
<use xlink:href="#font_4_6" transform="matrix(27.673888,0,0,-27.673888,144.10317,146.00449)"/>
<use xlink:href="#font_4_8" transform="matrix(27.673888,0,0,-27.673888,166.71274,151.0688)"/>
<use xlink:href="#font_4_2" transform="matrix(27.673888,0,0,-27.673888,182.56986,145.70008)"/>
<use xlink:href="#font_4_7" transform="matrix(27.673888,0,0,-27.673888,203.96175,146.00449)"/>
<use xlink:href="#font_3_7" transform="matrix(27.673888,0,0,-27.673888,222.48691,152.61855)"/>
<use xlink:href="#font_4_4" transform="matrix(27.673888,0,0,-27.673888,231.78408,146.00449)"/>
<use xlink:href="#font_3_8" transform="matrix(27.673888,0,0,-27.673888,244.9746,152.61855)"/>
<symbol id="font_8_1">
<path d="M .106 .37800003 C .106 .407 .08200001 .43100003 .05300001 .43100003 C .024000004 .43100003 0 .407 0 .37800003 C 0 .349 .024000004 .32500003 .05300001 .32500003 C .08200001 .32500003 .106 .349 .106 .37800003 M .106 .053000004 C .106 .082 .08200001 .106000009 .05300001 .106000009 C .024000004 .106000009 0 .082 0 .053000004 C 0 .024 .024000004 0 .05300001 0 C .08200001 0 .106 .024 .106 .053000004 Z "/>
</symbol>
<symbol id="font_8_3">
<path d="M .665 .214 C .665 .23400001 .646 .23400001 .632 .23400001 L .033 .23400001 C .019000002 .23400001 0 .23400001 0 .214 C 0 .19400002 .019000002 .19400002 .034 .19400002 L .63100007 .19400002 C .646 .19400002 .665 .19400002 .665 .214 M .665 .02000001 C .665 .040000008 .646 .040000008 .63100007 .040000008 L .034 .040000008 C .019000002 .040000008 0 .040000008 0 .02000001 C 0 0 .019000002 0 .033 0 L .632 0 C .646 0 .665 0 .665 .02000001 Z "/>
</symbol>
<use xlink:href="#font_8_1" transform="matrix(27.673888,0,0,-27.673888,265.76325,145.70008)"/>
<use xlink:href="#font_8_3" transform="matrix(27.673888,0,0,-27.673888,272.6264,142.01944)"/>
<use xlink:href="#font_4_5" transform="matrix(27.673888,0,0,-27.673888,303.28617,151.37322)"/>
<use xlink:href="#font_6_1" transform="matrix(19.371666,0,0,-19.371666,319.277,134.86421)"/>
<use xlink:href="#font_8_b" transform="matrix(27.673888,0,0,-27.673888,328.49104,151.04114)"/>
<symbol id="font_0_1">
<path d="M .51 .213 C .51 .319 .43199999 .42200003 .26 .42200003 C .221 .42200003 .16900002 .41700004 .12100001 .389 L .12100001 .508 C .157 .503 .18300002 .503 .19500001 .503 C .219 .503 .288 .503 .362 .54700008 C .39100004 .56400009 .45999999 .61500009 .45999999 .64500007 C .45999999 .64900007 .45999999 .66800007 .44200004 .66800007 C .44200004 .66800007 .43800003 .66800007 .426 .66400006 C .36 .6420001 .301 .63600006 .255 .63600006 C .214 .63600006 .15200001 .64100006 .08600001 .66300007 C .072 .66800007 .068 .66800007 .068 .66800007 C .050000006 .66800007 .050000006 .65200009 .050000006 .637 L .050000006 .34100003 C .050000006 .321 .050000006 .307 .078999999 .307 C .089 .307 .096 .307 .104 .315 C .12300001 .336 .16000001 .37600003 .255 .37600003 C .35900004 .37600003 .35900004 .289 .35900004 .21700001 C .35900004 .15 .35900004 .051 .221 .051 C .17400001 .051 .12200001 .067 .09300001 .10000001 C .143 .113000009 .147 .155 .147 .17 C .147 .21900001 .109 .244 .074 .244 C .038000004 .244 0 .22 0 .169 C 0 .07700001 .09 0 .22500001 0 C .41400004 0 .51 .10000001 .51 .213 Z "/>
</symbol>
<use xlink:href="#font_0_1" transform="matrix(19.371666,0,0,-19.371666,1.3478062,181.9075)"/>
<symbol id="font_8_4">
<path d="M .305 0 L .305 .031000002 L .279 .031000002 C .20000002 .031000002 .19700001 .042000005 .19700001 .078 L .19700001 .605 C .19700001 .64100006 .20000002 .652 .279 .652 L .305 .652 L .305 .683 C .27 .68 .19100002 .68 .15300001 .68 C .11400001 .68 .035 .68 0 .683 L 0 .652 L .026 .652 C .105000007 .652 .10800001 .64100006 .10800001 .605 L .10800001 .078 C .10800001 .042000005 .105000007 .031000002 .026 .031000002 L 0 .031000002 L 0 0 C .035 .003 .11400001 .003 .15200001 .003 C .19100002 .003 .27 .003 .305 0 Z "/>
</symbol>
<symbol id="font_8_5">
<path d="M .503 0 L .503 .031000002 C .451 .031000002 .42600004 .031000002 .425 .061000006 L .425 .252 C .425 .33800004 .425 .36900003 .39400003 .40500004 C .38000003 .42200003 .347 .44200004 .289 .44200004 C .216 .44200004 .169 .39900003 .141 .337 L .141 .44200004 L 0 .43100003 L 0 .4 C .07000001 .4 .07800001 .393 .07800001 .344 L .07800001 .076000008 C .07800001 .031000002 .067 .031000002 0 .031000002 L 0 0 L .113000009 .003 L .225 0 L .225 .031000002 C .158 .031000002 .147 .031000002 .147 .076000008 L .147 .26000003 C .147 .36400003 .218 .42000003 .282 .42000003 C .345 .42000003 .356 .36600004 .356 .30900003 L .356 .076000008 C .356 .031000002 .345 .031000002 .278 .031000002 L .278 0 L .391 .003 L .503 0 Z "/>
</symbol>
<symbol id="font_8_a">
<path d="M .32700003 .13900002 C .32700003 .19200002 .29700003 .22200002 .28500004 .23400001 C .25200004 .26600004 .213 .27400003 .171 .28200004 C .115 .293 .048 .30600003 .048 .36400003 C .048 .39900003 .07400001 .44000004 .16 .44000004 C .27 .44000004 .27500005 .35000003 .277 .31900005 C .27800004 .31000004 .28900004 .31000004 .28900004 .31000004 C .30200003 .31000004 .30200003 .31500004 .30200003 .33400003 L .30200003 .43500004 C .30200003 .45200003 .30200003 .45900003 .291 .45900003 C .286 .45900003 .284 .45900003 .27100004 .44700004 C .26800005 .44300003 .25800003 .43400003 .254 .43100003 C .21600002 .45900003 .17500001 .45900003 .16 .45900003 C .038000004 .45900003 0 .39200003 0 .33600004 C 0 .30100004 .016000003 .27300004 .043000007 .25100003 C .075 .22500003 .10300001 .21900001 .17500001 .20500002 C .197 .20100002 .279 .18500002 .279 .113000009 C .279 .062000004 .24400002 .022000002 .16600001 .022000002 C .082 .022000002 .046000005 .079 .027000003 .16400002 C .024000004 .17700002 .023000002 .18100001 .013000004 .18100001 C 0 .18100001 0 .17400001 0 .15600002 L 0 .024 C 0 .0070000009 0 0 .011000004 0 C .016000003 0 .017 .0010000002 .036000007 .020000002 C .038000004 .022000002 .038000004 .024 .056 .043 C .1 .0010000002 .14500001 0 .16600001 0 C .28100003 0 .32700003 .067 .32700003 .13900002 Z "/>
</symbol>
<symbol id="font_8_2">
<path d="M .38700003 .13000001 C .38700003 .14000002 .379 .14200002 .374 .14200002 C .365 .14200002 .36300005 .136 .36100004 .128 C .326 .025000003 .236 .025000003 .22600001 .025000003 C .17600002 .025000003 .136 .055000005 .113000009 .092 C .083000008 .14000002 .083000008 .20600002 .083000008 .24200002 L .36200003 .24200002 C .38400004 .24200002 .38700003 .24200002 .38700003 .263 C .38700003 .36200003 .33300004 .45900003 .20800002 .45900003 C .09200001 .45900003 0 .35600005 0 .23100002 C 0 .097 .105000007 0 .22000002 0 C .342 0 .38700003 .111 .38700003 .13000001 M .321 .263 L .08400001 .263 C .09 .41200004 .17400001 .43700005 .20800002 .43700005 C .31100003 .43700005 .321 .30200003 .321 .263 Z "/>
</symbol>
<symbol id="font_8_9">
<path d="M .33600004 .381 C .33600004 .41300003 .305 .44200004 .26200003 .44200004 C .18900001 .44200004 .15300001 .37500004 .13900002 .33200003 L .13900002 .44200004 L 0 .43100003 L 0 .4 C .07000001 .4 .07800001 .393 .07800001 .344 L .07800001 .076000008 C .07800001 .031000002 .067 .031000002 0 .031000002 L 0 0 L .11400001 .003 C .15400002 .003 .20100002 .003 .24100003 0 L .24100003 .031000002 L .22000002 .031000002 C .14600002 .031000002 .14400001 .042000005 .14400001 .078 L .14400001 .23200001 C .14400001 .33100004 .18600002 .42000003 .26200003 .42000003 C .26900003 .42000003 .27100004 .42000003 .27300004 .41900004 C .27 .418 .25000004 .40600003 .25000004 .38000003 C .25000004 .35200004 .27100004 .337 .293 .337 C .31100003 .337 .33600004 .349 .33600004 .381 Z "/>
</symbol>
<symbol id="font_8_c">
<path d="M .31300003 .135 L .31300003 .19200002 L .28800003 .19200002 L .28800003 .13700001 C .28800003 .063 .25800003 .025000003 .22100002 .025000003 C .15400002 .025000003 .15400002 .116000007 .15400002 .13300002 L .15400002 .411 L .29700003 .411 L .29700003 .44200004 L .15400002 .44200004 L .15400002 .626 L .12900001 .626 C .12799999 .544 .098000008 .43700005 0 .43300004 L 0 .411 L .085 .411 L .085 .135 C .085 .012000001 .178 0 .21400002 0 C .28500004 0 .31300003 .071 .31300003 .135 Z "/>
</symbol>
<use xlink:href="#font_8_4" transform="matrix(27.673888,0,0,-27.673888,110.20264,181.67505)"/>
<use xlink:href="#font_8_5" transform="matrix(27.673888,0,0,-27.673888,120.3036,181.67505)"/>
<use xlink:href="#font_8_a" transform="matrix(27.673888,0,0,-27.673888,135.71793,181.97946)"/>
<use xlink:href="#font_8_2" transform="matrix(27.673888,0,0,-27.673888,146.51074,181.97946)"/>
<use xlink:href="#font_8_9" transform="matrix(27.673888,0,0,-27.673888,158.82566,181.67505)"/>
<use xlink:href="#font_8_c" transform="matrix(27.673888,0,0,-27.673888,169.42473,181.97946)"/>
<use xlink:href="#font_4_4" transform="matrix(27.673888,0,0,-27.673888,190.10912,181.97946)"/>
<symbol id="font_8_d">
<path d="M .21400002 0 L .21400002 .031000002 C .148 .031000002 .144 .036000004 .144 .075 L .144 .44200004 L .0040000008 .43100003 L .0040000008 .4 C .069000009 .4 .07800001 .39400003 .07800001 .34500004 L .07800001 .076000008 C .07800001 .031000002 .067 .031000002 0 .031000002 L 0 0 L .11000001 .003 C .14500001 .003 .18 .001 .21400002 0 M .15900001 .60400006 C .15900001 .63100007 .136 .657 .10600001 .657 C .072000008 .657 .052 .629 .052 .60400006 C .052 .577 .075 .551 .10500001 .551 C .139 .551 .15900001 .57900008 .15900001 .60400006 Z "/>
</symbol>
<symbol id="font_8_6">
<path d="M .44300003 .22500003 C .44300003 .35300002 .34300003 .45900003 .222 .45900003 C .097 .45900003 0 .35000003 0 .22500003 C 0 .096 .104 0 .22100002 0 C .342 0 .44300003 .098000008 .44300003 .22500003 M .36 .23300003 C .36 .19700001 .36 .143 .33800004 .09900001 C .316 .054 .272 .025000003 .222 .025000003 C .17900002 .025000003 .135 .046 .10800001 .092 C .083000008 .136 .083000008 .19700001 .083000008 .23300003 C .083000008 .272 .083000008 .32600004 .10700001 .37000004 C .134 .41600005 .18100001 .43700005 .22100002 .43700005 C .26500003 .43700005 .30800004 .41500003 .33400003 .37200005 C .36 .32900004 .36 .27100004 .36 .23300003 Z "/>
</symbol>
<use xlink:href="#font_8_d" transform="matrix(27.673888,0,0,-27.673888,211.86048,181.67505)"/>
<use xlink:href="#font_8_5" transform="matrix(27.673888,0,0,-27.673888,219.52616,181.67505)"/>
<use xlink:href="#font_8_c" transform="matrix(27.673888,0,0,-27.673888,233.77822,181.97946)"/>
<use xlink:href="#font_8_6" transform="matrix(27.673888,0,0,-27.673888,244.79245,181.97946)"/>
<symbol id="font_9_6">
<path d="M .667 .535 C .667 .619 .59900006 .683 .49000005 .683 L .19000003 .683 C .17400003 .683 .16300002 .683 .16300002 .66400006 C .16300002 .652 .171 .652 .19000003 .652 C .22100002 .652 .24800003 .652 .24800003 .63500007 C .24800003 .632 .24800003 .63000008 .24400002 .61600008 L .109000008 .07300001 C .101 .039 .095000009 .031000002 .027000003 .031000002 C .011 .031000002 0 .031000002 0 .012 C 0 0 .011 0 .014000006 0 C .052 0 .093 .003 .132 .003 C .17200002 .003 .21300003 0 .25200004 0 C .25900004 0 .27100004 0 .27100004 .018000002 C .27100004 .031000002 .26400004 .031000002 .24400002 .031000002 C .18600002 .031000002 .18600002 .039 .18600002 .048 C .18600002 .052 .18600002 .054 .19000003 .068 L .25100003 .316 L .40600003 .316 C .532 .316 .667 .418 .667 .535 M .579 .56200006 C .579 .54200008 .564 .44400005 .526 .4 C .49100004 .36100004 .441 .342 .38100005 .342 L .25500003 .342 L .323 .61600008 C .33200003 .652 .33900003 .652 .37200005 .652 L .45800004 .652 C .528 .652 .579 .62600007 .579 .56200006 Z "/>
</symbol>
<symbol id="font_9_1">
<path d="M .42700006 .15400002 C .42700006 .16400002 .41900004 .16400002 .41200007 .16400002 C .40000005 .16400002 .399 .16300002 .393 .14100002 C .379 .085 .36 .022000002 .32600004 .022000002 C .3 .022000002 .3 .049000004 .3 .063 C .3 .07000001 .3 .086 .30700005 .11400001 L .375 .38600005 C .379 .40000005 .379 .40200005 .379 .40700004 C .379 .42800004 .362 .43300004 .352 .43300004 C .32 .43300004 .31300003 .39900003 .31200005 .39400003 C .29300005 .43700005 .26100005 .45300005 .22900002 .45300005 C .118 .45300005 0 .30100004 0 .15500002 C 0 .07000001 .046000005 0 .12100001 0 C .15700002 0 .20100002 .021000002 .24100001 .07000001 C .25200004 .021000002 .28900004 0 .324 0 C .361 0 .38200004 .025000003 .397 .056 C .41500003 .094000007 .42700006 .15400002 .42700006 .15400002 M .24800001 .135 C .24000003 .10300001 .17800002 .022000002 .12300001 .022000002 C .076000008 .022000002 .068 .081 .068 .111 C .068 .16100002 .09900001 .27800004 .117 .32000003 C .142 .381 .18800001 .43100003 .22900002 .43100003 C .273 .43100003 .29800005 .37900005 .29800005 .337 C .29800005 .337 .297 .33 .29500003 .32400004 L .24800001 .135 Z "/>
</symbol>
<symbol id="font_9_9">
<path d="M .265 .15400002 C .265 .16400002 .25700004 .16400002 .25 .16400002 C .23800002 .16400002 .23800002 .16300002 .23 .14500001 C .212 .097 .172 .022000002 .11500001 .022000002 C .088 .022000002 .088 .047000003 .088 .063 C .088 .07000001 .088 .086 .095 .11400001 L .16900002 .411 L .254 .411 C .27100004 .411 .282 .411 .282 .43000005 C .282 .44200004 .273 .44200004 .25700004 .44200004 L .177 .44200004 L .214 .59000006 C .21800001 .60400006 .21800001 .606 .21800001 .611 C .21800001 .632 .20100002 .637 .191 .637 C .166 .637 .156 .616 .15200001 .601 L .113000009 .44200004 L .027999998 .44200004 C .011 .44200004 0 .44200004 0 .42300005 C 0 .411 .008999996 .411 .024999999 .411 L .105000007 .411 L .033 .124000009 C .031999999 .120000008 .027999998 .104 .027999998 .09 C .027999998 .040000004 .061000006 0 .113000009 0 C .214 0 .265 .14900002 .265 .15400002 Z "/>
</symbol>
<symbol id="font_9_2">
<path d="M .46000005 .15400002 C .46000005 .16400002 .45200003 .16400002 .44500006 .16400002 C .43200005 .16400002 .43200005 .16200002 .42800004 .14700002 C .42000003 .120000008 .393 .022000002 .33500005 .022000002 C .314 .022000002 .31300003 .037 .31300003 .051000004 C .31300003 .076000008 .323 .102000009 .33100004 .126 C .351 .17900002 .39200003 .291 .39200003 .34900005 C .39200003 .43100003 .337 .45300005 .288 .45300005 C .221 .45300005 .186 .418 .155 .388 L .228 .68 C .22900002 .683 .23100002 .693 .23100002 .693 C .23100002 .702 .22500001 .705 .21700002 .705 C .214 .705 .20400001 .704 .20100002 .703 L .102 .695 C .09 .694 .07900001 .693 .07900001 .674 C .07900001 .663 .089 .663 .103 .663 C .15100001 .663 .15300001 .656 .15300001 .646 C .15300001 .643 .15 .629 .15 .629 L .002000004 .039 C .001000002 .037 0 .026 0 .026 C 0 .015000001 .009000003 0 .028000005 0 C .049000004 0 .062000008 .017 .065 .028 L .10800001 .20100002 C .113000009 .22300002 .119 .24400002 .12400001 .26600004 C .133 .30200003 .134 .30400003 .15200001 .33600004 C .172 .36800004 .21500002 .43100003 .28500004 .43100003 C .329 .43100003 .33100004 .38600005 .33100004 .365 C .33100004 .30300004 .287 .18400002 .273 .14400001 C .26 .11000001 .25700004 .101 .25700004 .080000009 C .25700004 .036000004 .28500004 0 .333 0 C .42600007 0 .46000005 .14900002 .46000005 .15400002 Z "/>
</symbol>
<symbol id="font_9_a">
<path d="M .91600009 .69400009 C .91600009 .69400009 .91600009 .70500007 .9040001 .70500007 C .8810001 .70500007 .8550001 .702 .83100005 .702 C .7990001 .702 .76400008 .70500007 .73200008 .70500007 C .726 .70500007 .71300008 .70500007 .71300008 .68600007 C .71300008 .6750001 .72200009 .674 .72900006 .674 C .74600008 .67300006 .78000006 .66700008 .78000006 .63600006 C .78000006 .6240001 .77500006 .61500009 .76900008 .60400006 L .51600006 .13800001 L .49400003 .63000008 C .49400003 .63000008 .49300004 .633 .49300004 .637 C .49300004 .65400007 .499 .67300006 .564 .674 C .572 .674 .58400008 .674 .58400008 .69400009 C .58400008 .70300009 .57600006 .70500007 .57000008 .70500007 C .53300008 .70500007 .49400003 .702 .45700003 .702 C .425 .702 .39000006 .70500007 .35900004 .70500007 C .35500003 .70500007 .34100003 .70500007 .34100003 .68600007 C .34100003 .674 .352 .674 .36200006 .674 C .40400005 .674 .40800006 .66800007 .41000004 .65300008 C .411 .64900007 .41400004 .586 .41400004 .586 C .41400004 .57800009 .41400004 .57600006 .40800006 .56600007 L .17500001 .13800001 L .15300003 .62700006 C .15200001 .64800009 .15100003 .67300006 .21800003 .674 C .23200003 .674 .24300003 .674 .24300003 .693 C .24300003 .70500007 .23200003 .70500007 .229 .70500007 C .192 .70500007 .15300003 .702 .116 .702 C .08400002 .702 .048999996 .70500007 .018000007 .70500007 C .0140000139 .70500007 0 .70500007 0 .68600007 C 0 .674 .010000005 .674 .024000004 .674 C .069000009 .674 .069000009 .66600009 .07000002 .642 L .09800002 .025000003 C .09900001 .0040000008 .10100001 0 .116 0 C .13100001 0 .134 .005000001 .14200002 .020000002 L .417 .52300009 L .439 .025000003 C .44 .006000001 .44 0 .45700003 0 C .46500004 0 .47300006 0 .48300005 .018000002 L .79600009 .59200009 C .8300001 .65400007 .85400006 .67 .902 .674 C .912 .6750001 .91600009 .6840001 .91600009 .69400009 Z "/>
</symbol>
<symbol id="font_9_5">
<path d="M .399 .28900004 C .399 .38400004 .34 .45300005 .253 .45300005 C .12900001 .45300005 0 .31100003 0 .16500002 C 0 .062000004 .063 0 .146 0 C .27 0 .399 .14200002 .399 .28900004 M .329 .328 C .329 .28500004 .307 .18200001 .275 .12200001 C .24599999 .067 .195 .022000002 .146 .022000002 C .107 .022000002 .07 .053000004 .07 .12500002 C .07 .17500001 .09600001 .286 .12799999 .34000004 C .16499999 .40100003 .213 .43100003 .252 .43100003 C .301 .43100003 .329 .38700003 .329 .328 Z "/>
</symbol>
<symbol id="font_9_7">
<path d="M .40600003 .39000003 C .40600003 .44200004 .34100003 .45300005 .30800004 .45300005 C .23900002 .45300005 .20300001 .40300004 .187 .381 C .176 .43400003 .13700001 .45300005 .104 .45300005 C .068 .45300005 .048000009 .43000005 .031999999 .40000005 C .012999997 .36 0 .29900003 0 .29900003 C 0 .28900004 .009999998 .28900004 .015000001 .28900004 C .028000005 .28900004 .029 .29000003 .034 .31200005 C .052 .38200004 .07100001 .43100003 .102 .43100003 C .128 .43100003 .128 .40200005 .128 .39100004 C .128 .37500004 .125 .35600005 .12100001 .34000004 L .046000005 .040000004 C .044 .034 .042999999 .029000003 .042999999 .026 C .042999999 .015000001 .051 0 .07100001 0 C .10100001 0 .10800001 .029000003 .11 .037 L .17500001 .29900003 C .176 .30200003 .22100002 .43100003 .307 .43100003 C .312 .43100003 .34 .43100003 .36 .41700004 C .32500003 .40600003 .32200004 .374 .32200004 .36900003 C .32200004 .35600005 .33100004 .337 .35700003 .337 C .37500004 .337 .40600003 .351 .40600003 .39000003 Z "/>
</symbol>
<symbol id="font_9_3">
<path d="M .40900005 .15400002 C .40900005 .16400002 .40100003 .16400002 .394 .16400002 C .38200004 .16400002 .38100005 .16300002 .375 .14100002 C .362 .09 .343 .022000002 .29900003 .022000002 C .272 .022000002 .27000005 .045 .27000005 .065000008 C .27000005 .08800001 .277 .116000007 .278 .12100001 C .283 .14200002 .283 .143 .283 .15600002 C .283 .22400002 .21300002 .25100003 .15 .26000003 C .17300001 .27400003 .19400002 .29500003 .221 .32600004 C .273 .38500003 .31200005 .43100003 .362 .43100003 C .38100005 .43100003 .389 .41900004 .389 .41900004 C .347 .41200004 .342 .37700004 .342 .36900003 C .342 .35600005 .351 .337 .37700004 .337 C .39900006 .337 .42700006 .35500003 .42700006 .39300005 C .42700006 .41900004 .40900005 .45300005 .36400003 .45300005 C .311 .45300005 .268 .411 .23400001 .37100003 C .177 .305 .16100002 .28900004 .126 .272 L .228 .68 C .22900002 .683 .23100002 .693 .23100002 .693 C .23100002 .702 .22500001 .705 .21700002 .705 C .214 .705 .20400001 .704 .20100002 .703 L .102 .695 C .09 .694 .07900001 .693 .07900001 .674 C .07900001 .663 .089 .663 .103 .663 C .15100001 .663 .15300001 .656 .15300001 .646 C .15300001 .643 .15 .629 .15 .629 L .002000004 .039 C .001000002 .037 0 .026 0 .026 C 0 .015000001 .009000003 0 .028000005 0 C .058 0 .065 .028 .067 .037 L .118 .24000003 C .155 .23500002 .219 .21400002 .219 .15600002 C .219 .14900002 .219 .14500001 .216 .13100001 C .212 .11400001 .212 .107 .212 .097 C .212 .025000003 .259 0 .296 0 C .34000004 0 .362 .033000005 .37300004 .052 C .39500005 .09 .40900005 .15100001 .40900005 .15400002 Z "/>
</symbol>
<symbol id="font_9_4">
<path d="M .56200006 .246 C .56200006 .25800003 .5500001 .25800003 .54700008 .25800003 C .535 .25800003 .53400006 .25500003 .52700009 .23600002 C .49500004 .147 .452 .031000002 .296 .031000002 L .215 .031000002 C .184 .031000002 .184 .034 .184 .041 C .184 .047000003 .187 .057000005 .188 .063 L .324 .60700008 C .333 .642 .33900003 .652 .42000003 .652 L .43 .652 C .447 .652 .45800004 .652 .45800004 .671 C .45800004 .683 .447 .683 .443 .683 C .398 .683 .351 .68 .305 .68 C .264 .68 .222 .683 .18200001 .683 C .176 .683 .163 .683 .163 .66400006 C .163 .652 .171 .652 .19 .652 C .22100002 .652 .248 .652 .248 .63500007 C .248 .632 .248 .63000008 .24400002 .61600008 L .109 .07300001 C .100999999 .039 .095 .031000002 .026999999 .031000002 C .011000004 .031000002 0 .031000002 0 .012 C 0 0 .009 0 .025000003 0 L .45300005 0 C .475 0 .47600005 .001 .48200003 .018000002 L .558 .23300001 L .56200006 .246 Z "/>
</symbol>
<symbol id="font_9_b">
<path d="M .24800003 .15400002 C .24800003 .16400002 .24000001 .16400002 .23300001 .16400002 C .22 .16400002 .22 .16200002 .21600002 .14700002 C .208 .11800001 .181 .022000002 .12300001 .022000002 C .11500001 .022000002 .10100001 .023000002 .10100001 .05 C .10100001 .076000008 .11400001 .109000008 .127 .14600002 L .19100002 .31700004 C .201 .34600003 .20300001 .35400004 .20300001 .37300004 C .20300001 .42800004 .165 .45300005 .128 .45300005 C .034 .45300005 0 .30400003 0 .29900003 C 0 .28900004 .009999998 .28900004 .015000001 .28900004 C .028000005 .28900004 .029 .291 .033 .305 C .041999997 .33800004 .068 .43100003 .126 .43100003 C .13700001 .43100003 .148 .42600004 .148 .40300004 C .148 .37900005 .13700001 .35000003 .13000001 .33100004 L .10000001 .24800003 L .06300001 .14900002 C .048999996 .111 .045 .1 .045 .080000009 C .045 .041 .069000009 0 .12100001 0 C .215 0 .24800003 .15000002 .24800003 .15400002 M .275 .622 C .275 .643 .26000003 .665 .23000002 .665 C .19800002 .665 .16600001 .634 .16600001 .602 C .16600001 .58 .18200001 .559 .211 .559 C .243 .559 .275 .59000006 .275 .622 Z "/>
</symbol>
<symbol id="font_9_8">
<path d="M .317 .16800002 C .317 .25500003 .23900002 .27300004 .19800002 .28200004 C .17 .28800003 .134 .29600004 .134 .33900003 C .134 .36300005 .155 .43100003 .23500002 .43100003 C .26200003 .43100003 .29900003 .42100004 .31 .38200004 C .278 .37800003 .27 .351 .27 .34100003 C .27 .33 .27600003 .31300003 .3 .31300003 C .317 .31300003 .34300003 .32500003 .34300003 .36800004 C .34300003 .41400004 .30200003 .45300005 .236 .45300005 C .119 .45300005 .07800001 .35700003 .07800001 .305 C .07800001 .22800002 .143 .21400002 .171 .20800002 C .215 .19800002 .26000003 .18800001 .26000003 .134 C .26000003 .102000009 .23300001 .022000002 .13000001 .022000002 C .10800001 .022000002 .049999998 .027000003 .034 .078 C .08500001 .083000008 .08500001 .127 .08500001 .127 C .08500001 .14600002 .072 .15900001 .051 .15900001 C .027999998 .15900001 0 .14200002 0 .097 C 0 .036000004 .058 0 .12900001 0 C .279 0 .317 .12200001 .317 .16800002 Z "/>
</symbol>
<use xlink:href="#font_9_6" transform="matrix(27.673888,0,0,-27.673888,268.80738,181.67505)"/>
<use xlink:href="#font_9_1" transform="matrix(27.673888,0,0,-27.673888,288.53883,181.97946)"/>
<use xlink:href="#font_9_9" transform="matrix(27.673888,0,0,-27.673888,302.48646,181.97946)"/>
<use xlink:href="#font_9_2" transform="matrix(27.673888,0,0,-27.673888,311.23136,181.97946)"/>
<use xlink:href="#font_9_a" transform="matrix(27.673888,0,0,-27.673888,330.49238,182.28388)"/>
<use xlink:href="#font_9_5" transform="matrix(27.673888,0,0,-27.673888,353.29566,181.97946)"/>
<use xlink:href="#font_9_7" transform="matrix(27.673888,0,0,-27.673888,366.68989,181.97946)"/>
<use xlink:href="#font_9_3" transform="matrix(27.673888,0,0,-27.673888,378.14689,181.97946)"/>
<use xlink:href="#font_9_4" transform="matrix(27.673888,0,0,-27.673888,392.48197,181.67505)"/>
<use xlink:href="#font_9_b" transform="matrix(27.673888,0,0,-27.673888,410.4146,181.97946)"/>
<use xlink:href="#font_9_8" transform="matrix(27.673888,0,0,-27.673888,418.7168,181.97946)"/>
<use xlink:href="#font_9_9" transform="matrix(27.673888,0,0,-27.673888,430.4505,181.97946)"/>
<use xlink:href="#font_8_b" transform="matrix(27.673888,0,0,-27.673888,441.40217,187.01612)"/>
<path transform="matrix(2.7777777,0,0,-2.7777777,81.75278,193.02216)" stroke-width=".398" stroke-linecap="butt" stroke-miterlimit="10" stroke-linejoin="miter" fill="none" stroke="#000000" d="M 0 0 L 4.981 0 "/>
<path transform="matrix(2.7777777,0,0,-2.7777777,24.191666,209.75002)" stroke-width=".797" stroke-linecap="butt" stroke-miterlimit="10" stroke-linejoin="miter" fill="none" stroke="#000000" d="M 0 0 L 396.85 0 "/>
</g>
</svg>
